SplineFontDB: 3.0
FontName: Jinko-Light
FullName: Jinko Light
FamilyName: Jinko
Weight: Light
Copyright: (c) vernon adams 2012
Version: 1.000;PS (version unavailable);hotconv 1.0.57;makeotf.lib2.0.21895 DEVELOPMENT
ItalicAngle: 0
UnderlinePosition: -50
UnderlineWidth: 50
Ascent: 1638
Descent: 410
sfntRevision: 0x00010000
LayerCount: 2
Layer: 0 0 "Back"  1
Layer: 1 0 "Fore"  0
NeedsXUIDChange: 1
XUID: [1021 14 500265001 9873931]
FSType: 4
OS2Version: 3
OS2_WeightWidthSlopeOnly: 0
OS2_UseTypoMetrics: 1
CreationTime: 1337090461
ModificationTime: 1337093656
PfmFamily: 81
TTFWeight: 300
TTFWidth: 5
LineGap: 0
VLineGap: 0
Panose: 0 0 0 0 0 0 0 0 0 0
OS2TypoAscent: 263
OS2TypoAOffset: 1
OS2TypoDescent: -73
OS2TypoDOffset: 1
OS2TypoLinegap: 0
OS2WinAscent: -387
OS2WinAOffset: 1
OS2WinDescent: -18
OS2WinDOffset: 1
HheadAscent: -387
HheadAOffset: 1
HheadDescent: 18
HheadDOffset: 1
OS2SubXSize: 1331
OS2SubYSize: 1228
OS2SubXOff: 0
OS2SubYOff: 153
OS2SupXSize: 1331
OS2SupYSize: 1228
OS2SupXOff: 0
OS2SupYOff: 716
OS2StrikeYSize: 50
OS2StrikeYPos: 619
OS2Vendor: 'NONE'
OS2CodePages: 20000093.00000000
OS2UnicodeRanges: 00000007.00000000.00000000.00000000
Lookup: 258 0 0 "'kern' Horizontal Kerning lookup 0"  {"'kern' Horizontal Kerning lookup 0 per glyph data 0"  "'kern' Horizontal Kerning lookup 0 kerning class 1"  } ['kern' ('DFLT' <'dflt' > 'latn' <'dflt' > ) ]
MarkAttachClasses: 1
DEI: 91125
KernClass2: 30 33 "'kern' Horizontal Kerning lookup 0 kerning class 1" 
 89 A Aacute Abreve Acircumflex Adieresis Agrave Amacron Aogonek Aring Atilde uni0200 uni0202
 9 B uni1E02
 119 D Dcaron Eth O Oacute Obreve Ocircumflex Odieresis Ograve Ohungarumlaut Omacron Oslash Otilde Q uni020C uni020E uni1E0A
 1 F
 1 K
 1 L
 9 P uni1E56
 44 R Racute Rcaron Rcommaaccent uni0210 uni0212
 24 T Tcaron uni021A uni1E6A
 103 U Uacute Ubreve Ucircumflex Udieresis Ugrave Uhungarumlaut Umacron Uogonek Uring Utilde uni0214 uni0216
 1 V
 37 W Wacute Wcircumflex Wdieresis Wgrave

StartChar: .notdef
Encoding: 65536 -1 0
Width: 1024
Flags: HW
LayerCount: 2
Fore
SplineSet
204 -289 m 1
 820 -289 l 1
 820 1379 l 1
 204 1379 l 1
 204 -289 l 1
102 -391 m 1
 102 1481 l 1
 922 1481 l 1
 922 -391 l 1
 102 -391 l 1
EndSplineSet
EndChar

StartChar: Eth
Encoding: 208 208 1
Width: 1554
Flags: HW
LayerCount: 2
Fore
SplineSet
253 95 m 1
 550 95 l 2
 949 95 1170 305 1170 740 c 0
 1170 1153 966 1381 547 1381 c 2
 253 1381 l 1
 253 803 l 1
 660 803 l 1
 660 706 l 1
 253 706 l 1
 253 95 l 1
0 706 m 1
 0 803 l 1
 124 803 l 1
 124 1481 l 1
 545 1481 l 2
 1016 1481 1299 1234 1299 740 c 0
 1299 266 1085 0 532 0 c 2
 124 0 l 1
 124 706 l 1
 0 706 l 1
EndSplineSet
EndChar

StartChar: eth
Encoding: 240 240 2
Width: 2694
Flags: HW
LayerCount: 2
Fore
SplineSet
657 72 m 0
 881 72 990 262 990 413 c 0
 990 637 877 779 614 777 c 1
 369 777 283 587 283 447 c 0
 283 260 360 72 657 72 c 0
636 -23 m 0
 363 -23 156 167 156 442 c 0
 156 716 396 870 624 870 c 0
 710 870 948 843 1024 649 c 1
 997 835 921 1037 798 1183 c 1
 640 1029 l 1
 545 1114 l 1
 708 1275 l 1
 617 1349 513 1390 390 1382 c 1
 390 1382 413 1480 422 1480 c 0
 563 1482 684 1433 786 1352 c 1
 971 1535 l 1
 1065 1451 l 1
 878 1263 l 1
 1045 1073 1136 788 1136 544 c 0
 1136 197 923 -23 636 -23 c 0
EndSplineSet
EndChar

StartChar: Lslash
Encoding: 321 321 3
Width: 1087
Flags: HW
LayerCount: 2
Fore
SplineSet
249 0 m 1
 249 554 l 1
 85 437 l 1
 85 569 l 1
 249 684 l 1
 249 1481 l 1
 375 1481 l 1
 375 775 l 1
 732 1033 l 1
 732 902 l 1
 375 645 l 1
 375 95 l 1
 1050 95 l 1
 1050 0 l 1
 249 0 l 1
EndSplineSet
EndChar

StartChar: lslash
Encoding: 322 322 4
Width: 549
Flags: HW
LayerCount: 2
Fore
SplineSet
436 -11 m 2
 191 -11 151 75 151 285 c 2
 151 629 l 1
 50 544 l 1
 50 685 l 1
 151 771 l 1
 151 1428 l 1
 280 1428 l 1
 279 889 l 1
 446 1034 l 1
 446 892 l 1
 279 746 l 1
 279 319 l 2
 279 152 244 100 518 100 c 1
 518 -11 l 1
 436 -11 l 2
EndSplineSet
EndChar

StartChar: Thorn
Encoding: 222 222 9
Width: 1009
Flags: HW
LayerCount: 2
Fore
SplineSet
285 473 m 1
 707 473 l 2
 797 473 897 566 897 740 c 0
 897 916 743 976 697 976 c 2
 285 976 l 1
 285 473 l 1
158 0 m 1
 158 1481 l 1
 285 1481 l 1
 285 1069 l 1
 699 1069 l 2
 930 1069 1025 875 1025 741 c 0
 1025 561 935 379 713 379 c 2
 285 379 l 1
 285 0 l 1
 158 0 l 1
EndSplineSet
EndChar

StartChar: thorn
Encoding: 254 254 10
Width: 1172
Flags: HW
LayerCount: 2
Fore
SplineSet
611 78 m 0
 799 78 946 199 946 508 c 0
 946 723 927 942 647 942 c 0
 534 942 361 893 274 757 c 1
 274 245 l 1
 356 100 563 78 611 78 c 0
147 -386 m 1
 147 1428 l 1
 274 1428 l 1
 274 847 l 1
 356 982 474 1051 599 1051 c 0
 869 1051 1073 876 1073 506 c 0
 1073 156 872 -17 632 -17 c 0
 499 -17 376 1 274 135 c 1
 274 -386 l 1
 147 -386 l 1
EndSplineSet
EndChar

StartChar: onehalf
Encoding: 189 189 13
Width: 1554
Flags: HW
LayerCount: 2
Fore
SplineSet
34 552 m 1
 34 653 l 1
 175 653 l 1
 175 1240 l 1
 20 1194 l 1
 20 1277 l 1
 101 1296 138 1332 159 1373 c 1
 309 1373 l 1
 309 653 l 1
 449 653 l 1
 449 552 l 1
 34 552 l 1
936 0 m 1
 936 98 l 1
 1100 258 1301 475 1301 601 c 0
 1301 681 1269 727 1155 727 c 0
 1099 727 1003 689 972 661 c 1
 948 755 l 1
 984 791 1093 829 1175 829 c 0
 1334 829 1418 741 1418 603 c 0
 1418 442 1282 294 1086 100 c 1
 1421 100 l 1
 1421 0 l 1
 936 0 l 1
271 0 m 1
 1103 1428 l 1
 1230 1428 l 1
 398 0 l 1
 271 0 l 1
EndSplineSet
EndChar

StartChar: onequarter
Encoding: 188 188 14
Width: 1302
Flags: HW
LayerCount: 2
Fore
SplineSet
-49 552 m 1
 -49 653 l 1
 92 653 l 1
 92 1240 l 1
 -63 1194 l 1
 -63 1277 l 1
 18 1296 55 1332 76 1373 c 1
 226 1373 l 1
 226 653 l 1
 366 653 l 1
 366 552 l 1
 -49 552 l 1
845 224 m 1
 1137 224 l 1
 1137 728 l 1
 845 224 l 1
217 0 m 1
 1049 1428 l 1
 1176 1428 l 1
 344 0 l 1
 217 0 l 1
1137 0 m 1
 1137 120 l 1
 727 120 l 1
 727 224 l 1
 1073 817 l 1
 1244 817 l 1
 1244 224 l 1
 1332 224 l 1
 1332 120 l 1
 1244 120 l 1
 1244 0 l 1
 1137 0 l 1
EndSplineSet
EndChar

StartChar: threequarters
Encoding: 190 190 15
Width: 1376
Flags: HW
LayerCount: 2
Fore
SplineSet
274 544 m 0
 152 544 63 584 30 607 c 1
 30 704 l 1
 63 704 l 1
 63 704 112 645 260 645 c 0
 385 645 457 695 457 784 c 0
 457 860 396 949 241 949 c 2
 175 949 l 1
 175 1032 l 1
 241 1032 l 2
 383 1032 425 1091 425 1167 c 0
 425 1234 370 1279 255 1279 c 0
 132 1279 63 1226 63 1226 c 1
 30 1226 l 1
 30 1321 l 1
 80 1357 174 1381 269 1381 c 0
 471 1381 558 1279 558 1167 c 0
 558 1063 492 1018 425 988 c 1
 500 965 586 894 586 784 c 0
 586 643 471 544 274 544 c 0
916 224 m 1
 1207 224 l 1
 1207 728 l 1
 916 224 l 1
288 0 m 1
 1121 1428 l 1
 1247 1428 l 1
 416 0 l 1
 288 0 l 1
1207 0 m 1
 1207 120 l 1
 798 120 l 1
 798 224 l 1
 1145 817 l 1
 1314 817 l 1
 1314 224 l 1
 1401 224 l 1
 1401 120 l 1
 1314 120 l 1
 1314 0 l 1
 1207 0 l 1
EndSplineSet
EndChar

StartChar: brokenbar
Encoding: 166 166 16
Width: 331
Flags: HW
LayerCount: 2
Fore
SplineSet
106 623 m 1
 106 1294 l 1
 225 1294 l 1
 225 623 l 1
 106 623 l 1
106 -337 m 1
 106 337 l 1
 225 337 l 1
 225 -337 l 1
 106 -337 l 1
EndSplineSet
EndChar

StartChar: minus
Encoding: 8722 8722 17
Width: 1184
Flags: HW
LayerCount: 2
Fore
SplineSet
106 411 m 1
 106 527 l 1
 1078 527 l 1
 1078 411 l 1
 106 411 l 1
EndSplineSet
EndChar

StartChar: multiply
Encoding: 215 215 18
Width: 1064
Flags: HW
LayerCount: 2
Fore
SplineSet
189 40 m 1
 83 145 l 1
 428 486 l 1
 83 828 l 1
 189 935 l 1
 531 592 l 1
 871 935 l 1
 978 828 l 1
 635 486 l 1
 978 145 l 1
 871 40 l 1
 531 384 l 1
 189 40 l 1
EndSplineSet
EndChar

StartChar: exclam
Encoding: 33 33 20
Width: 426
Flags: HW
LayerCount: 2
Fore
SplineSet
194 469 m 1
 129 1481 l 1
 298 1481 l 1
 236 469 l 1
 194 469 l 1
213 3 m 0
 140 3 77 61 77 136 c 0
 77 210 140 269 213 269 c 0
 286 269 350 210 350 136 c 0
 350 61 286 3 213 3 c 0
EndSplineSet
EndChar

StartChar: quotedbl
Encoding: 34 34 21
Width: 753
Flags: HW
LayerCount: 2
Fore
SplineSet
524 937 m 1
 479 1481 l 1
 657 1481 l 1
 614 937 l 1
 524 937 l 1
135 937 m 1
 96 1481 l 1
 270 1481 l 1
 230 937 l 1
 135 937 l 1
EndSplineSet
EndChar

StartChar: numbersign
Encoding: 35 35 22
Width: 1209
Flags: HW
LayerCount: 2
Fore
SplineSet
397 531 m 1
 733 531 l 1
 844 1025 l 1
 508 1025 l 1
 397 531 l 1
192 70 m 1
 281 479 l 1
 34 479 l 1
 34 530 l 1
 293 530 l 1
 404 1024 l 1
 112 1024 l 1
 112 1071 l 1
 416 1071 l 1
 489 1390 l 1
 592 1390 l 1
 522 1071 l 1
 855 1071 l 1
 924 1390 l 1
 1026 1390 l 1
 957 1071 l 1
 1172 1071 l 1
 1172 1024 l 1
 941 1024 l 1
 832 530 l 1
 1116 530 l 1
 1116 479 l 1
 817 479 l 1
 728 70 l 1
 630 70 l 1
 717 479 l 1
 382 479 l 1
 296 70 l 1
 192 70 l 1
EndSplineSet
EndChar

StartChar: dollar
Encoding: 36 36 23
Width: 1178
Flags: HW
LayerCount: 2
Fore
SplineSet
556 -170 m 1
 556 1638 l 1
 644 1638 l 1
 644 -170 l 1
 556 -170 l 1
EndSplineSet
Refer: 70 83 N 1 0 0 1 0 0 2
EndChar

StartChar: percent
Encoding: 37 37 24
Width: 1560
Flags: HW
LayerCount: 2
Fore
SplineSet
1324 1 m 0
 1093 1 1062 136 1062 359 c 0
 1062 581 1092 720 1324 723 c 1
 1556 721 1587 589 1587 369 c 0
 1587 144 1548 1 1324 1 c 0
1324 16 m 0
 1472 16 1556 74 1556 378 c 0
 1556 664 1483 717 1327 717 c 1
 1174 719 1097 674 1097 363 c 0
 1097 80 1168 16 1324 16 c 0
377 0 m 1
 1110 1459 l 1
 1162 1459 l 1
 434 0 l 1
 377 0 l 1
235 736 m 0
 4 736 -26 869 -26 1091 c 0
 -26 1282 -2 1411 150 1446 c 1
 55 1422 5 1340 5 1094 c 0
 5 812 82 749 238 749 c 0
 388 749 464 807 464 1110 c 0
 464 1397 391 1455 235 1455 c 0
 218 1455 201 1455 186 1453 c 1
 202 1455 220 1456 238 1456 c 0
 470 1456 493 1322 493 1102 c 0
 493 878 459 736 235 736 c 0
150 1446 m 1
 161 1449 173 1451 186 1453 c 1
 173 1452 161 1449 150 1446 c 1
EndSplineSet
EndChar

StartChar: ampersand
Encoding: 38 38 25
Width: 1375
Flags: HW
LayerCount: 2
Fore
SplineSet
451 846 m 1
 755 935 898 1059 898 1178 c 0
 898 1277 862 1418 585 1418 c 1
 344 1405 268 1319 263 1166 c 1
 271 1087 311 1000 451 846 c 1
604 81 m 0
 772 81 858 115 972 183 c 1
 1081 75 520 643 424 741 c 1
 324 689 167 522 167 355 c 0
 167 206 282 81 604 81 c 0
591 -23 m 0
 319 -23 65 92 65 354 c 0
 65 478 131 697 365 807 c 1
 276 890 165 1049 165 1190 c 0
 165 1353 261 1503 613 1503 c 0
 897 1503 1017 1341 995 1150 c 1
 987 1039 867 884 510 779 c 1
 566 723 986 294 1040 238 c 1
 1078 292 1173 364 1212 593 c 1
 1298 582 l 1
 1270 414 1183 262 1106 174 c 1
 1105 177 1319 0 1319 0 c 1
 1176 0 l 1
 1176 0 1131 39 1056 109 c 1
 927 8 748 -23 591 -23 c 0
EndSplineSet
EndChar

StartChar: quotesingle
Encoding: 39 39 26
Width: 375
Flags: HW
LayerCount: 2
Fore
SplineSet
134 908 m 1
 94 1481 l 1
 288 1481 l 1
 205 908 l 1
 134 908 l 1
EndSplineSet
EndChar

StartChar: parenleft
Encoding: 40 40 27
Width: 542
Flags: HW
LayerCount: 2
Fore
SplineSet
480.400390625 -305 m 1
 480.400390625 -276 l 1
 301.951171875 -55.5634765625 214.233398438 235.604492188 214.233398438 526.536132812 c 0
 214.233398438 820.280273438 303.65625 1113.78320312 479.400390625 1334 c 1
 479.400390625 1359 l 1
 367.400390625 1359 l 1
 172.3046875 1122.2421875 73 824.63671875 73 525.966796875 c 0
 73 230.779296875 170.002929688 -65.4482421875 367.400390625 -305 c 1
 480.400390625 -305 l 1
EndSplineSet
EndChar

StartChar: parenright
Encoding: 41 41 28
Width: 543
Flags: HW
LayerCount: 2
Fore
SplineSet
64 -305 m 1
 64 -276 l 1
 242.44921875 -55.5634765625 330.166992188 235.604492188 330.166992188 526.536132812 c 0
 330.166992188 820.280273438 240.744140625 1113.78320312 65 1334 c 1
 65 1359 l 1
 177 1359 l 1
 372.095703125 1122.2421875 471.400390625 824.63671875 471.400390625 525.966796875 c 0
 471.400390625 230.779296875 374.397460938 -65.4482421875 177 -305 c 1
 64 -305 l 1
EndSplineSet
EndChar

StartChar: asterisk
Encoding: 42 42 29
Width: 992
Flags: HW
LayerCount: 2
Fore
SplineSet
476 589 m 1
 436 599 395 632 395 692 c 0
 395 775 439 877 452 959 c 1
 449 956 440 951 434 946 c 0
 360 876 274 757 191 751 c 1
 145 763 103 807 93 859 c 1
 103 978 301 986 414 1034 c 1
 299 1083 98 1092 93 1211 c 1
 103 1259 145 1305 191 1318 c 1
 211 1316 231 1309 252 1296 c 0
 323 1254 388 1161 453 1109 c 1
 443 1204 393 1304 393 1400 c 1
 405 1447 448 1477 484 1477 c 1
 540 1483 598 1451 598 1375 c 0
 598 1289 556 1196 540 1110 c 1
 545 1113 550 1117 556 1122 c 0
 630 1191 714 1312 801 1318 c 1
 847 1305 888 1259 898 1211 c 1
 893 1094 689 1083 578 1034 c 1
 690 984 888 982 898 859 c 1
 888 807 845 763 801 751 c 1
 781 753 761 759 740 771 c 0
 671 813 599 907 539 958 c 1
 555 869 599 760 599 668 c 1
 585 616 529 589 476 589 c 1
EndSplineSet
EndChar

StartChar: plus
Encoding: 43 43 30
Width: 1146
Flags: HW
LayerCount: 2
Fore
SplineSet
535 148 m 1
 535 502 l 1
 147 502 l 1
 147 598 l 1
 535 598 l 1
 535 964 l 1
 617 964 l 1
 617 598 l 1
 998 598 l 1
 998 502 l 1
 617 502 l 1
 617 148 l 1
 535 148 l 1
EndSplineSet
EndChar

StartChar: comma
Encoding: 44 44 31
Width: 331
Flags: HW
LayerCount: 2
Fore
SplineSet
102 -186 m 1
 131 304 l 1
 293 304 l 1
 180 -186 l 1
 102 -186 l 1
EndSplineSet
EndChar

StartChar: hyphen
Encoding: 45 45 32
Width: 759
Flags: HW
LayerCount: 2
Fore
SplineSet
106 638 m 5
 106 756 l 1
 652 756 l 1
 652 638 l 5
 106 638 l 5
EndSplineSet
EndChar

StartChar: period
Encoding: 46 46 33
Width: 473
Flags: HW
LayerCount: 2
Fore
SplineSet
244 6 m 0
 172 6 113 61 113 133 c 0
 113 201 172 258 244 258 c 0
 313 258 370 201 370 133 c 0
 370 61 313 6 244 6 c 0
EndSplineSet
EndChar

StartChar: slash
Encoding: 47 47 34
Width: 871
Flags: HW
LayerCount: 2
Fore
SplineSet
-36 0 m 1
 823 1482 l 1
 902 1482 l 1
 52 0 l 1
 -36 0 l 1
EndSplineSet
EndChar

StartChar: zero
Encoding: 48 48 35
Width: 1278
Flags: HW
LayerCount: 2
Fore
SplineSet
652 -23 m 0
 245 -23 130 241 130 711 c 0
 130 1213 228 1503 652 1503 c 0
 1057 1503 1173 1223 1173 733 c 0
 1173 253 1085 -23 652 -23 c 0
652 81 m 0
 1021 81 1043 401 1043 724 c 0
 1043 1068 1006 1398 652 1398 c 0
 301 1398 263 1077 263 724 c 0
 263 382 290 81 652 81 c 0
EndSplineSet
EndChar

StartChar: one
Encoding: 49 49 36
Width: 871
Flags: HW
LayerCount: 2
Fore
SplineSet
126 0 m 1
 126 95 l 1
 421 95 l 1
 421 1289 l 1
 144 1224 l 1
 144 1328 l 1
 411 1376 453 1414 479 1481 c 1
 548 1481 l 1
 548 95 l 1
 838 95 l 1
 838 0 l 1
 126 0 l 1
EndSplineSet
EndChar

StartChar: two
Encoding: 50 50 37
Width: 1197
Flags: HW
LayerCount: 2
Fore
SplineSet
137 0 m 1
 137 134 l 1
 656 634 940 858 940 1092 c 1
 931 1233 898 1411 613 1411 c 0
 360 1411 204 1292 186 1275 c 1
 159 1372 l 1
 234 1438 450 1503 613 1503 c 0
 916 1503 1071 1363 1071 1134 c 0
 1071 841 788 595 241 95 c 1
 1046 95 l 1
 1046 0 l 1
 137 0 l 1
186 1275 m 1
 184 1273 183 1272 186 1274 c 1
 186 1275 l 1
EndSplineSet
EndChar

StartChar: three
Encoding: 51 51 38
Width: 1159
Flags: HW
LayerCount: 2
Fore
SplineSet
556 -23 m 0
 337 -23 201 64 174 85 c 1
 174 172 l 1
 206 172 l 1
 293 96 497 73 598 73 c 0
 765 73 954 102 954 368 c 0
 954 601 837 748 556 748 c 2
 369 748 l 1
 369 843 l 1
 534 843 l 2
 837 843 888 984 888 1129 c 0
 888 1282 817 1413 591 1413 c 0
 266 1413 217 1336 217 1336 c 1
 174 1336 l 1
 174 1406 l 1
 273 1474 390 1503 573 1503 c 0
 913 1503 1011 1316 1011 1151 c 0
 1011 951 900 840 724 806 c 1
 942 763 1065 604 1065 402 c 0
 1065 71 866 -23 556 -23 c 0
EndSplineSet
EndChar

StartChar: four
Encoding: 52 52 39
Width: 1152
Flags: HW
LayerCount: 2
Fore
SplineSet
198 443 m 1
 819 443 l 1
 819 1340 l 1
 198 443 l 1
819 0 m 1
 819 343 l 1
 69 343 l 1
 69 455 l 1
 794 1481 l 1
 948 1481 l 1
 948 443 l 1
 1099 443 l 1
 1099 343 l 1
 948 343 l 1
 948 0 l 1
 819 0 l 1
EndSplineSet
EndChar

StartChar: five
Encoding: 53 53 40
Width: 1244
Flags: HW
LayerCount: 2
Fore
SplineSet
607 -23 m 0
 406 -23 265 19 165 67 c 1
 165 170 l 1
 209 170 l 2
 227 170 273 72 597 72 c 0
 892 72 999 237 999 381 c 0
 999 585 967 795 324 837 c 1
 390 830 202 848 202 848 c 1
 202 1481 l 1
 963 1481 l 1
 963 1386 l 1
 320 1386 l 1
 320 927 l 1
 320 927 378 921 415 919 c 0
 907 899 1123 693 1123 413 c 0
 1123 140 925 -23 607 -23 c 0
EndSplineSet
EndChar

StartChar: six
Encoding: 54 54 41
Width: 1257
Flags: HW
LayerCount: 2
Fore
SplineSet
617 72 m 0
 913 72 992 260 992 447 c 0
 992 587 907 777 662 777 c 1
 399 779 282 637 282 413 c 0
 282 262 392 72 617 72 c 0
637 -23 m 0
 350 -23 137 175 137 522 c 0
 137 938 394 1483 852 1480 c 0
 861 1480 883 1382 883 1382 c 1
 525 1406 299 995 248 649 c 1
 324 843 566 870 652 870 c 0
 880 870 1116 716 1116 442 c 0
 1116 167 910 -23 637 -23 c 0
EndSplineSet
EndChar

StartChar: seven
Encoding: 55 55 42
Width: 1107
Flags: HW
LayerCount: 2
Fore
SplineSet
359 0 m 1
 872 1386 l 1
 242 1386 l 1
 242 1160 l 1
 114 1160 l 1
 114 1481 l 1
 989 1481 l 1
 989 1391 l 1
 478 0 l 1
 359 0 l 1
EndSplineSet
EndChar

StartChar: eight
Encoding: 56 56 43
Width: 1226
Flags: HW
LayerCount: 2
Fore
SplineSet
735 820 m 1
 776 857 985 995 985 1202 c 0
 985 1341 822 1397 632 1397 c 0
 544 1397 274 1400 274 1184 c 0
 274 1061 579 877 735 820 c 1
621 85 m 0
 942 85 999 264 999 370 c 0
 999 519 843 629 574 747 c 1
 494 706 217 540 217 332 c 0
 217 160 337 85 621 85 c 0
614 -23 m 0
 295 -23 96 160 96 336 c 0
 96 577 345 722 506 806 c 1
 231 949 141 1056 141 1189 c 0
 141 1365 343 1498 616 1498 c 0
 906 1498 1096 1372 1096 1193 c 0
 1096 999 1021 907 803 776 c 1
 958 697 1130 582 1130 418 c 0
 1130 160 939 -23 614 -23 c 0
EndSplineSet
EndChar

StartChar: nine
Encoding: 57 57 44
Width: 1216
Flags: HW
LayerCount: 2
Fore
SplineSet
580 684 m 1
 842 682 960 831 960 1055 c 0
 960 1207 847 1388 623 1388 c 0
 326 1388 250 1194 250 1008 c 0
 250 868 334 684 580 684 c 1
380 -21 m 0
 371 -21 358 69 358 69 c 1
 716 46 977 465 990 811 c 1
 914 617 670 589 585 589 c 0
 357 589 125 743 125 1017 c 0
 125 1291 328 1484 601 1484 c 0
 888 1484 1102 1279 1102 932 c 0
 1102 457 839 -23 380 -21 c 0
EndSplineSet
EndChar

StartChar: colon
Encoding: 58 58 45
Width: 475
Flags: HW
LayerCount: 2
Fore
SplineSet
236 754 m 0
 161 754 100 821 100 896 c 0
 100 971 161 1032 236 1032 c 0
 311 1032 375 971 375 896 c 0
 375 821 311 754 236 754 c 0
236 0 m 0
 161 0 100 63 100 136 c 0
 100 211 161 275 236 275 c 0
 311 275 375 211 375 136 c 0
 375 63 311 0 236 0 c 0
EndSplineSet
EndChar

StartChar: semicolon
Encoding: 59 59 46
Width: 372
Flags: HW
LayerCount: 2
Fore
SplineSet
210 763 m 0
 135 763 74 824 74 899 c 0
 74 972 135 1032 210 1032 c 0
 284 1032 346 972 346 899 c 0
 346 824 284 763 210 763 c 0
96 -186 m 1
 125 304 l 1
 287 304 l 1
 174 -186 l 1
 96 -186 l 1
EndSplineSet
EndChar

StartChar: less
Encoding: 60 60 47
Width: 952
Flags: HW
LayerCount: 2
Fore
SplineSet
977 -14 m 1
 -30 537 l 1
 -30 607 l 1
 977 1155 l 1
 977 1044 l 1
 11 566 l 1
 977 82 l 1
 977 -14 l 1
EndSplineSet
EndChar

StartChar: equal
Encoding: 61 61 48
Width: 1090
Flags: HW
LayerCount: 2
Fore
SplineSet
106 875 m 1
 106 916 l 1
 984 916 l 1
 984 875 l 1
 106 875 l 1
106 436 m 1
 106 475 l 1
 984 475 l 1
 984 436 l 1
 106 436 l 1
EndSplineSet
EndChar

StartChar: greater
Encoding: 62 62 49
Width: 952
Flags: HW
LayerCount: 2
Fore
SplineSet
-24 -14 m 1
 -24 100 l 1
 942 577 l 1
 -24 1062 l 1
 -24 1155 l 1
 983 606 l 1
 983 534 l 1
 -24 -14 l 1
EndSplineSet
EndChar

StartChar: question
Encoding: 63 63 50
Width: 872
Flags: HW
LayerCount: 2
Fore
SplineSet
340 3 m 0
 271 3 212 58 212 127 c 0
 212 197 271 255 340 255 c 0
 410 255 462 197 462 127 c 0
 462 58 410 3 340 3 c 0
316 425 m 1
 270 450 l 1
 429 675 695 1009 695 1203 c 0
 695 1294 653 1404 457 1404 c 0
 325 1404 209 1368 75 1286 c 1
 75 1386 l 1
 134 1422 279 1503 456 1503 c 0
 694 1503 796 1356 796 1208 c 0
 796 958 518 638 316 425 c 1
EndSplineSet
EndChar

StartChar: at
Encoding: 64 64 51
Width: 1668
Flags: HW
LayerCount: 2
Fore
SplineSet
782 255 m 0
 941 255 1015 363 1011 375 c 1
 1060 818 l 1
 1021 874 939 935 814 935 c 0
 655 935 538 862 538 581 c 0
 538 428 584 255 782 255 c 0
805 -117 m 0
 352 -117 93 171 93 593 c 0
 93 1023 417 1330 861 1330 c 0
 1278 1330 1574 1049 1574 664 c 0
 1574 380 1447 166 1239 166 c 0
 1129 166 1046 249 1033 322 c 1
 979 196 834 187 733 187 c 0
 510 187 414 383 414 583 c 0
 414 826 549 1021 802 1021 c 0
 936 1021 1040 939 1074 885 c 1
 1097 990 l 1
 1176 990 l 1
 1117 459 l 2
 1114 436 1113 416 1113 401 c 0
 1113 241 1195 231 1247 231 c 0
 1357 231 1478 374 1478 646 c 0
 1478 958 1288 1243 865 1243 c 0
 424 1243 226 922 226 592 c 0
 226 127 537 -16 801 -16 c 0
 954 -16 1084 10 1212 81 c 1
 1253 -3 l 1
 1129 -74 946 -117 805 -117 c 0
EndSplineSet
EndChar

StartChar: A
Encoding: 65 65 52
Width: 1295
Flags: HW
LayerCount: 2
Fore
SplineSet
348 524 m 1
 941 524 l 1
 636 1426 l 1
 348 524 l 1
35 0 m 1
 538 1481 l 1
 735 1481 l 1
 1259 0 l 1
 1123 0 l 1
 983 428 l 1
 315 428 l 1
 170 0 l 1
 35 0 l 1
EndSplineSet
EndChar

StartChar: B
Encoding: 66 66 53
Width: 1250
Flags: HW
LayerCount: 2
Fore
SplineSet
253 851 m 1
 607 851 l 2
 828 851 924 989 924 1131 c 0
 924 1266 808 1386 600 1386 c 2
 253 1386 l 1
 253 851 l 1
253 95 m 1
 640 95 l 2
 1012 95 1025 329 1025 450 c 0
 1025 615 860 771 676 771 c 2
 253 771 l 1
 253 95 l 1
124 0 m 1
 124 1481 l 1
 549 1481 l 2
 872 1481 1052 1386 1052 1116 c 0
 1052 993 963 862 802 825 c 1
 802 817 l 1
 1009 796 1154 635 1154 453 c 0
 1154 131 943 0 603 0 c 2
 124 0 l 1
EndSplineSet
EndChar

StartChar: C
Encoding: 67 67 54
Width: 1194
Flags: HW
LayerCount: 2
Fore
SplineSet
705 -23 m 0
 258 -23 92 258 92 748 c 0
 92 1241 345 1505 712 1505 c 0
 908 1505 1095 1418 1118 1389 c 1
 1084 1301 l 1
 1084 1301 966 1404 702 1404 c 0
 434 1404 211 1222 211 744 c 0
 211 244 407 80 700 80 c 0
 949 80 1090 194 1090 194 c 1
 1114 106 l 1
 1054 45 907 -23 705 -23 c 0
EndSplineSet
EndChar

StartChar: D
Encoding: 68 68 55
Width: 1396
Flags: HW
LayerCount: 2
Fore
SplineSet
124 0 m 1
 124 1481 l 1
 545 1481 l 2
 1016 1481 1299 1234 1299 740 c 0
 1299 266 1085 0 532 0 c 2
 124 0 l 1
253 95 m 1
 550 95 l 2
 949 95 1170 305 1170 740 c 0
 1170 1153 966 1381 547 1381 c 2
 253 1381 l 1
 253 95 l 1
EndSplineSet
EndChar

StartChar: E
Encoding: 69 69 56
Width: 1027
Flags: HW
LayerCount: 2
Fore
SplineSet
124 0 m 1
 124 1481 l 1
 915 1481 l 1
 915 1386 l 1
 253 1386 l 1
 253 828 l 1
 865 828 l 1
 865 735 l 1
 253 735 l 1
 253 95 l 1
 955 95 l 1
 955 0 l 1
 124 0 l 1
EndSplineSet
EndChar

StartChar: F
Encoding: 70 70 57
Width: 925
Flags: HW
LayerCount: 2
Fore
SplineSet
124 0 m 1
 124 1481 l 1
 898 1481 l 1
 898 1383 l 1
 253 1383 l 1
 253 843 l 1
 837 843 l 1
 837 745 l 1
 253 745 l 1
 253 0 l 1
 124 0 l 1
EndSplineSet
EndChar

StartChar: G
Encoding: 71 71 58
Width: 1413
Flags: HW
LayerCount: 2
Fore
SplineSet
765 -23 m 0
 277 -23 92 277 92 749 c 0
 92 1242 366 1503 791 1503 c 0
 969 1503 1137 1463 1253 1414 c 1
 1221 1314 l 2
 1221 1317 1009 1406 810 1406 c 0
 486 1406 218 1210 218 746 c 0
 218 288 384 80 762 80 c 0
 1040 80 1162 161 1160 162 c 1
 1160 695 l 1
 727 695 l 1
 727 782 l 1
 1263 782 l 1
 1263 103 l 1
 1278 101 1104 -23 765 -23 c 0
EndSplineSet
EndChar

StartChar: H
Encoding: 72 72 59
Width: 1359
Flags: HW
LayerCount: 2
Fore
SplineSet
124 0 m 1
 124 1481 l 1
 253 1481 l 1
 253 808 l 1
 1105 808 l 1
 1105 1481 l 1
 1234 1481 l 1
 1234 0 l 1
 1105 0 l 1
 1105 721 l 1
 253 721 l 1
 253 0 l 1
 124 0 l 1
EndSplineSet
EndChar

StartChar: I
Encoding: 73 73 60
Width: 824
Flags: HW
LayerCount: 2
Fore
SplineSet
113 0 m 1
 113 71 l 1
 356 71 l 1
 356 1406 l 1
 113 1406 l 1
 113 1481 l 1
 728 1481 l 1
 728 1406 l 1
 484 1406 l 1
 484 71 l 1
 728 71 l 1
 728 0 l 1
 113 0 l 1
EndSplineSet
EndChar

StartChar: J
Encoding: 74 74 61
Width: 850
Flags: HW
LayerCount: 2
Fore
SplineSet
145 136 m 1
 181 116 272 76 359 76 c 0
 496 76 599 142 599 401 c 2
 599 1386 l 1
 397 1386 l 1
 397 1481 l 1
 727 1481 l 1
 727 442 l 2
 727 128 632 -19 404 -19 c 0
 282 -19 146 42 130 49 c 1
 145 136 l 1
145 136 m 1
 146 142 l 1
 122 152 125 147 145 136 c 1
130 49 m 1
 128 50 128 50 130 49 c 1
 130 49 l 1
EndSplineSet
EndChar

StartChar: K
Encoding: 75 75 62
Width: 1191
Flags: HW
LayerCount: 2
Fore
SplineSet
124 0 m 1
 124 1481 l 1
 253 1481 l 1
 253 670 l 1
 254 670 l 1
 577 1029 l 1
 574 1012 969 1481 969 1481 c 1
 1149 1481 l 1
 627 916 l 1
 1177 0 l 1
 1029 0 l 1
 1103 -127 697 559 608 708 c 1
 542 814 l 1
 253 507 l 1
 253 0 l 1
 124 0 l 1
EndSplineSet
EndChar

StartChar: L
Encoding: 76 76 63
Width: 991
Flags: HW
LayerCount: 2
Fore
SplineSet
124 0 m 1
 124 1481 l 1
 253 1481 l 1
 253 95 l 1
 927 95 l 1
 927 0 l 1
 124 0 l 1
EndSplineSet
EndChar

StartChar: M
Encoding: 77 77 64
Width: 1494
Flags: HW
LayerCount: 2
Fore
SplineSet
124 0 m 1
 124 1481 l 1
 240 1481 l 1
 748 604 l 1
 1254 1481 l 1
 1368 1481 l 1
 1368 0 l 1
 1241 0 l 1
 1241 1044 l 1
 1250 1279 l 1
 810 492 l 1
 704 492 l 1
 242 1279 l 1
 252 1044 l 1
 252 0 l 1
 124 0 l 1
EndSplineSet
EndChar

StartChar: N
Encoding: 78 78 65
Width: 1445
Flags: HW
LayerCount: 2
Fore
SplineSet
124 0 m 1
 124 1481 l 1
 185 1481 l 1
 1201 194 l 1
 1193 501 l 1
 1193 1481 l 1
 1319 1481 l 1
 1319 0 l 1
 1219 0 l 1
 246 1237 l 1
 251 1041 l 1
 251 0 l 1
 124 0 l 1
EndSplineSet
EndChar

StartChar: O
Encoding: 79 79 66
Width: 1556
Flags: HW
LayerCount: 2
Fore
SplineSet
777 -23 m 0
 314 -23 92 286 92 740 c 0
 92 1197 315 1503 777 1503 c 0
 1239 1503 1464 1198 1464 740 c 0
 1464 289 1240 -23 777 -23 c 0
777 81 m 0
 1200 81 1332 399 1332 740 c 0
 1332 1069 1203 1398 777 1398 c 0
 336 1398 220 1041 220 740 c 0
 220 406 340 81 777 81 c 0
EndSplineSet
EndChar

StartChar: P
Encoding: 80 80 67
Width: 1085
Flags: HW
LayerCount: 2
Fore
SplineSet
253 752 m 1
 351 752 l 2
 740 752 889 881 889 1093 c 0
 889 1282 805 1386 493 1386 c 2
 253 1386 l 1
 253 752 l 1
124 0 m 1
 124 1481 l 1
 490 1481 l 2
 861 1481 1016 1361 1016 1090 c 0
 1016 791 764 655 371 655 c 2
 253 655 l 1
 253 0 l 1
 124 0 l 1
EndSplineSet
EndChar

StartChar: Q
Encoding: 81 81 68
Width: 1556
Flags: HW
LayerCount: 2
Fore
SplineSet
777 -23 m 0
 314 -23 92 286 92 740 c 0
 92 1197 315 1503 777 1503 c 0
 1239 1503 1464 1198 1464 740 c 0
 1464 358 1303 75 972 -2 c 1
 1084 -373 l 1
 962 -411 l 1
 850 -20 l 1
 826 -22 802 -23 777 -23 c 0
941 100 m 1
 1235 173 1332 448 1332 740 c 0
 1332 1069 1203 1398 777 1398 c 0
 336 1398 220 1041 220 740 c 0
 220 406 340 81 777 81 c 0
 792 81 807 81 821 82 c 1
 801 151 l 1
 801 151 925 152 926 151 c 2
 941 100 l 1
EndSplineSet
EndChar

StartChar: R
Encoding: 82 82 69
Width: 1189
Flags: HW
LayerCount: 2
Fore
SplineSet
253 815 m 1
 616 815 l 2
 877 815 964 969 964 1134 c 0
 964 1283 856 1386 643 1386 c 2
 253 1386 l 1
 253 815 l 1
124 0 m 1
 124 1481 l 1
 618 1481 l 2
 890 1481 1082 1409 1082 1118 c 0
 1082 921 955 795 773 738 c 1
 1162 40 l 1
 1162 0 l 1
 1050 0 l 1
 642 720 l 1
 253 720 l 1
 253 0 l 1
 124 0 l 1
EndSplineSet
EndChar

StartChar: S
Encoding: 83 83 70
Width: 1165
Flags: HW
LayerCount: 2
Fore
SplineSet
584 -26 m 0
 388 -26 208 37 84 126 c 1
 101 213 l 1
 128 213 l 1
 246 125 442 81 572 81 c 0
 881 81 980 227 980 366 c 0
 980 573 929 617 499 722 c 1
 230 790 113 912 113 1131 c 0
 113 1364 338 1503 613 1503 c 0
 769 1503 925 1481 1042 1409 c 1
 1036 1315 l 1
 1030 1315 l 1
 1005 1331 824 1398 657 1398 c 0
 347 1398 233 1254 233 1123 c 0
 233 1003 242 892 594 810 c 1
 908 745 1094 662 1094 367 c 0
 1094 95 866 -26 584 -26 c 0
EndSplineSet
EndChar

StartChar: T
Encoding: 84 84 71
Width: 1108
Flags: HW
LayerCount: 2
Fore
SplineSet
491 0 m 1
 491 1386 l 1
 41 1386 l 1
 41 1481 l 1
 1067 1481 l 1
 1067 1386 l 1
 619 1386 l 1
 619 0 l 1
 491 0 l 1
EndSplineSet
EndChar

StartChar: U
Encoding: 85 85 72
Width: 1454
Flags: HW
LayerCount: 2
Fore
SplineSet
725 -23 m 0
 387 -23 108 130 108 480 c 2
 108 1481 l 1
 235 1481 l 1
 235 485 l 2
 235 211 405 72 723 72 c 0
 1043 72 1219 210 1219 484 c 2
 1219 1481 l 1
 1346 1481 l 1
 1346 480 l 2
 1346 126 1075 -23 725 -23 c 0
EndSplineSet
EndChar

StartChar: V
Encoding: 86 86 73
Width: 1272
Flags: HW
LayerCount: 2
Fore
SplineSet
523 0 m 1
 -20 1481 l 1
 104 1481 l 1
 324 874 238 1123 456 514 c 1
 534 304 562 230 640 20 c 1
 719 228 747 304 822 516 c 0
 1037 1120 946 876 1161 1481 c 1
 1290 1481 l 1
 755 0 l 1
 523 0 l 1
EndSplineSet
EndChar

StartChar: W
Encoding: 87 87 74
Width: 1939
Flags: HW
LayerCount: 2
Fore
SplineSet
417 0 m 1
 17 1481 l 1
 131 1481 l 1
 284 910 275 967 428 396 c 1
 464 257 442 350 480 211 c 1
 483 211 l 1
 524 350 497 261 538 399 c 0
 709 972 692 910 863 1481 c 1
 1091 1481 l 1
 1261 908 1248 960 1416 383 c 1
 1454 248 1424 347 1462 212 c 1
 1498 347 1475 259 1511 394 c 0
 1666 968 1654 906 1809 1481 c 1
 1921 1481 l 1
 1505 0 l 1
 1392 0 l 1
 984 1476 l 1
 530 0 l 1
 417 0 l 1
EndSplineSet
EndChar

StartChar: X
Encoding: 88 88 75
Width: 1390
Flags: HW
LayerCount: 2
Fore
SplineSet
17 0 m 1
 619 737 l 1
 51 1481 l 1
 172 1481 l 1
 172 1481 318 1281 534 997 c 0
 606 901 617 882 691 790 c 1
 765 882 784 901 856 997 c 0
 1072 1281 1009 1196 1227 1481 c 1
 1372 1481 l 1
 759 711 l 1
 1329 0 l 1
 1207 0 l 1
 1012 263 1057 172 863 433 c 0
 780 544 770 547 689 659 c 1
 600 549 589 540 503 429 c 0
 301 169 364 261 163 0 c 1
 17 0 l 1
EndSplineSet
EndChar

StartChar: Y
Encoding: 89 89 76
Width: 1296
Flags: HW
LayerCount: 2
Fore
SplineSet
572 0 m 1
 572 706 l 1
 -35 1481 l 1
 88 1481 l 1
 627 803 l 1
 1193 1481 l 1
 1330 1481 l 1
 698 702 l 1
 698 0 l 1
 572 0 l 1
EndSplineSet
EndChar

StartChar: Z
Encoding: 90 90 77
Width: 1065
Flags: HW
LayerCount: 2
Fore
SplineSet
82 0 m 1
 82 109 l 1
 892 1386 l 1
 63 1386 l 1
 63 1481 l 1
 997 1481 l 1
 997 1387 l 1
 195 95 l 1
 1011 95 l 1
 1011 0 l 1
 82 0 l 1
EndSplineSet
EndChar

StartChar: bracketleft
Encoding: 91 91 78
Width: 573
Flags: HW
LayerCount: 2
Fore
SplineSet
103 -167 m 1
 103 1481 l 1
 485 1481 l 1
 485 1386 l 1
 229 1386 l 1
 229 -74 l 1
 485 -74 l 1
 485 -167 l 1
 103 -167 l 1
EndSplineSet
EndChar

StartChar: backslash
Encoding: 92 92 79
Width: 872
Flags: HW
LayerCount: 2
Fore
SplineSet
842 0 m 1
 -55 1481 l 1
 25 1481 l 1
 920 0 l 1
 842 0 l 1
EndSplineSet
EndChar

StartChar: bracketright
Encoding: 93 93 80
Width: 574
Flags: HW
LayerCount: 2
Fore
SplineSet
88 -167 m 1
 88 -74 l 1
 344 -74 l 1
 344 1386 l 1
 88 1386 l 1
 88 1481 l 1
 472 1481 l 1
 472 -167 l 1
 88 -167 l 1
EndSplineSet
EndChar

StartChar: asciicircum
Encoding: 94 94 81
Width: 1389
Flags: HW
LayerCount: 2
Fore
SplineSet
91 596 m 1
 565 1384 l 1
 796 1384 l 1
 1299 599 l 1
 1095 599 l 1
 681 1320 l 1
 276 596 l 1
 91 596 l 1
EndSplineSet
EndChar

StartChar: underscore
Encoding: 95 95 82
Width: 774
Flags: HW
LayerCount: 2
Fore
SplineSet
6 -113 m 1
 6 0 l 1
 768 0 l 1
 768 -113 l 1
 6 -113 l 1
EndSplineSet
EndChar

StartChar: grave
Encoding: 96 96 83
Width: 286
Flags: HW
LayerCount: 2
Fore
SplineSet
212 1110 m 1
 -10 1452 l 1
 67 1452 l 1
 303 1110 l 1
 212 1110 l 1
EndSplineSet
EndChar

StartChar: a
Encoding: 97 97 84
Width: 1040
Flags: HW
LayerCount: 2
Fore
SplineSet
406 82 m 0
 649 82 792 292 792 522 c 1
 255 531 194 396 194 253 c 0
 194 147 312 82 406 82 c 0
406 -19 m 0
 214 -19 84 89 80 263 c 1
 80 549 293 616 792 616 c 1
 792 879 724 956 545 956 c 0
 361 956 199 901 169 887 c 1
 144 990 l 1
 155 988 322 1057 531 1057 c 0
 869 1057 921 834 921 582 c 2
 921 0 l 1
 792 0 l 1
 792 275 l 1
 724 92 603 -19 406 -19 c 0
EndSplineSet
EndChar

StartChar: b
Encoding: 98 98 85
Width: 1153
Flags: HW
LayerCount: 2
Fore
SplineSet
568 82 m 0
 806 82 924 267 924 515 c 0
 924 783 810 956 613 956 c 0
 425 956 261 793 254 726 c 1
 254 195 l 1
 341 135 440 82 568 82 c 0
556 -19 m 0
 438 -19 319 27 254 123 c 1
 254 0 l 1
 126 0 l 1
 126 1481 l 1
 254 1481 l 1
 254 862 l 1
 301 976 498 1057 601 1057 c 0
 826 1057 1045 921 1045 540 c 0
 1045 171 830 -19 556 -19 c 0
EndSplineSet
EndChar

StartChar: c
Encoding: 99 99 86
Width: 1034
Flags: HW
LayerCount: 2
Fore
SplineSet
630 -19 m 0
 324 -19 105 146 105 511 c 0
 105 854 330 1057 605 1057 c 0
 726 1057 837 1037 954 971 c 1
 921 879 l 1
 927 868 797 956 610 956 c 0
 374 956 226 764 226 510 c 0
 226 268 375 82 620 82 c 0
 761 82 899 150 912 155 c 1
 941 64 l 1
 888 22 771 -19 630 -19 c 0
EndSplineSet
EndChar

StartChar: d
Encoding: 100 100 87
Width: 1156
Flags: HW
LayerCount: 2
Fore
SplineSet
566 82 m 0
 782 82 902 215 902 283 c 1
 902 778 l 1
 902 831 781 956 582 956 c 0
 414 956 226 848 226 531 c 0
 226 268 325 82 566 82 c 0
557 -19 m 1
 345 -19 105 120 105 513 c 0
 105 870 331 1057 542 1057 c 0
 646 1057 822 1039 902 870 c 1
 902 1481 l 1
 1028 1481 l 1
 1028 0 l 1
 902 0 l 1
 902 175 l 1
 854 53 691 -6 557 -19 c 1
EndSplineSet
EndChar

StartChar: e
Encoding: 101 101 88
Width: 1124
Flags: HW
LayerCount: 2
Fore
SplineSet
228 578 m 1
 888 578 l 1
 883 702 835 956 589 956 c 0
 398 956 247 800 228 578 c 1
624 -19 m 0
 357 -19 105 145 105 508 c 0
 105 850 333 1057 589 1057 c 0
 898 1057 1021 775 1021 501 c 2
 1021 489 l 1
 225 489 l 1
 238 239 389 82 606 82 c 0
 789 82 882 133 953 200 c 1
 995 104 l 1
 977 80 866 -19 624 -19 c 0
EndSplineSet
EndChar

StartChar: f
Encoding: 102 102 89
Width: 655
Flags: HW
LayerCount: 2
Fore
SplineSet
195 0 m 1
 195 945 l 1
 2 945 l 1
 2 1032 l 1
 195 1032 l 1
 195 1068 l 2
 195 1317 250 1428 516 1428 c 0
 590 1428 552 1424 605 1418 c 1
 605 1309 l 1
 605 1309 554 1319 530 1319 c 0
 366 1319 331 1281 331 1032 c 1
 615 1032 l 1
 615 945 l 1
 323 945 l 1
 323 0 l 1
 195 0 l 1
EndSplineSet
EndChar

StartChar: g
Encoding: 103 103 90
Width: 1162
Flags: HW
LayerCount: 2
Back
SplineSet
563 74 m 4
 617 74 783 85 902 238 c 5
 902 758 l 5
 827.370786517 914.693548387 660.606741573 959 574 959 c 4
 284.103546143 959 226 731.549136533 226 506 c 4
 226 241.474501109 341.099975586 74 563 74 c 4
902 -386 m 5
 902 139 l 5
 821.949685535 35.6923076923 699.710689682 -19.0299446958 558 -19 c 4
 317 -18.9580993652 105 154.831282953 105 506 c 4
 105 873.998003992 289.099975586 1057 564 1057 c 4
 689 1057 826 1010.51648352 902 869 c 5
 902 1032 l 5
 1031 1032 l 5
 1031 -386 l 5
 902 -386 l 5
EndSplineSet
Fore
SplineSet
544 82 m 0
 660 82 799 112 902 238 c 1
 902 758 l 1
 812 915 684 956 580 956 c 0
 241 956 226 673 226 499 c 0
 226 286 322 82 544 82 c 0
594 -391 m 0
 391 -391 267 -314 267 -314 c 1
 296 -222 l 1
 296 -222 427 -296 579 -296 c 0
 808 -296 899 -207 896 25 c 1
 896 136 l 1
 817 25 684 -19 549 -19 c 0
 296 -19 105 177 105 496 c 0
 105 858 283 1057 554 1057 c 0
 732 1057 840 970 902 866 c 1
 902 1032 l 1
 1031 1032 l 1
 1031 163 l 2
 1031 -259 920 -391 594 -391 c 0
EndSplineSet
EndChar

StartChar: h
Encoding: 104 104 91
Width: 1144
Flags: HW
LayerCount: 2
Fore
SplineSet
126 0 m 1
 126 1481 l 1
 254 1481 l 1
 254 854 l 1
 358 986 524 1057 666 1057 c 0
 885 1057 1030 933 1030 690 c 2
 1030 0 l 1
 902 0 l 1
 902 752 l 2
 902 908 748 956 655 956 c 0
 419 956 254 790 254 749 c 2
 254 0 l 1
 126 0 l 1
EndSplineSet
EndChar

StartChar: i
Encoding: 105 105 92
Width: 475
Flags: HW
LayerCount: 2
Fore
SplineSet
240 1221 m 0
 169 1221 137 1272 137 1323 c 0
 137 1375 167 1426 240 1426 c 0
 310 1426 341 1374 341 1323 c 0
 341 1272 311 1221 240 1221 c 0
164 0 m 1
 164 1032 l 1
 293 1032 l 1
 293 0 l 1
 164 0 l 1
EndSplineSet
EndChar

StartChar: j
Encoding: 106 106 93
Width: 494
Flags: HW
LayerCount: 2
Fore
SplineSet
275 1221 m 0
 204 1221 171 1276 171 1323 c 0
 171 1377 201 1428 275 1428 c 0
 345 1428 377 1376 377 1325 c 0
 377 1274 344 1221 275 1221 c 0
102 -368 m 0
 0 -368 -40 -362 -40 -362 c 1
 -40 -254 l 1
 -69 -252 31 -256 62 -256 c 0
 148 -256 197 -246 197 -34 c 2
 197 1032 l 1
 326 1032 l 1
 326 26 l 2
 326 -190 332 -368 102 -368 c 0
EndSplineSet
EndChar

StartChar: k
Encoding: 107 107 94
Width: 1036
Flags: HW
LayerCount: 2
Fore
SplineSet
115 0 m 1
 115 1481 l 5
 243 1481 l 5
 243 570 l 1
 837 1032 l 1
 990 1032 l 1
 990 988 l 1
 511 612 l 1
 1037 42 l 1
 1037 0 l 1
 897 0 l 1
 416 568 l 1
 243 443 l 1
 243 0 l 1
 115 0 l 1
EndSplineSet
EndChar

StartChar: l
Encoding: 108 108 95
Width: 545
Flags: HW
LayerCount: 2
Fore
SplineSet
435 -11 m 2
 191 -11 150 75 150 285 c 2
 150 1481 l 5
 279 1481 l 5
 279 319 l 2
 279 152 279 93 517 93 c 1
 517 -11 l 1
 435 -11 l 2
EndSplineSet
EndChar

StartChar: m
Encoding: 109 109 96
Width: 1662
Flags: HW
LayerCount: 2
Fore
SplineSet
126 0 m 1
 126 1032 l 1
 254 1032 l 1
 254 867 l 1
 318 960 453 1057 606 1057 c 0
 721 1057 831 1026 876 887 c 1
 965 1007 1120 1057 1240 1057 c 0
 1415 1057 1548 939 1550 681 c 1
 1550 0 l 1
 1421 0 l 1
 1421 692 l 2
 1421 870 1350 956 1227 956 c 4
 1069 956 902 816 902 780 c 2
 902 0 l 1
 774 0 l 1
 774 716 l 2
 774 870 684 956 587 956 c 4
 428 956 297 819 254 756 c 1
 254 0 l 1
 126 0 l 1
EndSplineSet
EndChar

StartChar: n
Encoding: 110 110 97
Width: 1143
Flags: HW
LayerCount: 2
Fore
SplineSet
126 0 m 1
 126 1032 l 1
 254 1032 l 1
 254 854 l 1
 358 987 524 1057 666 1057 c 0
 885 1057 1030 933 1030 690 c 2
 1030 0 l 1
 902 0 l 1
 902 752 l 2
 902 908 754 956 665 956 c 0
 423 956 254 790 254 749 c 2
 254 0 l 1
 126 0 l 1
EndSplineSet
EndChar

StartChar: o
Encoding: 111 111 98
Width: 1194
Flags: HW
LayerCount: 2
Fore
SplineSet
594 -19 m 4
 366 -19 105 122 105 524 c 4
 105 924 382 1057 594 1057 c 4
 826 1057 1089 926 1089 524 c 4
 1089 127 826 -19 594 -19 c 4
595 82 m 4
 832 82 964 285 964 527 c 4
 964 789 817 956 594 956 c 4
 394 956 226 791 226 525 c 4
 226 274 351.599990845 82 595 82 c 4
EndSplineSet
EndChar

StartChar: p
Encoding: 112 112 99
Width: 1155
Flags: HW
LayerCount: 2
Fore
SplineSet
587 82 m 0
 775 82 918 204 918 514 c 0
 918 725 862 956 612 956 c 0
 499 956 341 894 254 763 c 1
 254 251 l 1
 336 104 539 82 587 82 c 0
126 -386 m 1
 126 1032 l 1
 254 1032 l 1
 254 853 l 1
 336 988 475 1057 601 1057 c 0
 871 1057 1049 882 1049 512 c 0
 1049 157 851 -19 612 -19 c 0
 478 -19 356 0 254 141 c 1
 254 -386 l 1
 126 -386 l 1
EndSplineSet
EndChar

StartChar: q
Encoding: 113 113 100
Width: 1149
Flags: HW
LayerCount: 2
Back
SplineSet
536 74 m 0
 652 74 791 105.465116279 894 238 c 1
 894 742 l 1
 800.36416185 908.336633663 622.74566474 952 560 952 c 0
 232.509090909 952 218 671 218 499 c 0
 218 281.798672566 314 74 536 74 c 0
586 -391 m 0
 383.434082031 -391 259.499770581 -314 259 -314 c 1
 288 -222 l 1
 288 -222 419.434082031 -296 571 -296 c 0
 800 -296 891 -207 888 25 c 1
 888 136 l 1
 809 24.7423312883 676 -19 541 -19 c 0
 288 -19 97 176.73800738 97 496 c 0
 97 858 275.423580786 1057 546 1057 c 0
 684.584070796 1057 811.876106195 963.651162791 894 834 c 1
 894 1032 l 1
 1023 1032 l 1
 1023 163 l 2
 1023 -259 912.390041494 -391 586 -391 c 0
EndSplineSet
Fore
SplineSet
555 82 m 0
 609 82 775 92 894 238 c 1
 894 758 l 1
 819 912 653 956 566 956 c 0
 276 956 218 730 218 506 c 0
 218 246 333 82 555 82 c 0
894 -386 m 1
 894 139 l 1
 814 36 692 -19 550 -19 c 0
 309 -19 97 155 97 506 c 0
 97 874 281 1057 556 1057 c 0
 681 1057 818 1011 894 869 c 1
 894 1032 l 1
 1023 1032 l 1
 1023 -386 l 1
 894 -386 l 1
EndSplineSet
EndChar

StartChar: r
Encoding: 114 114 101
Width: 648
Flags: HW
LayerCount: 2
Fore
SplineSet
126 0 m 1
 126 1032 l 1
 254 1032 l 1
 254 904 l 1
 255 904 l 1
 311 969 423 1035 550 1035 c 0
 586 1035 629 1028 654 1015 c 1
 647 912 l 1
 626 921 586 927 536 927 c 0
 444 927 354 900 254 814 c 1
 254 0 l 1
 126 0 l 1
EndSplineSet
EndChar

StartChar: s
Encoding: 115 115 102
Width: 965
Flags: HW
LayerCount: 2
Fore
SplineSet
476 -19 m 0
 344 -19 200 7 96 71 c 1
 118 156 l 1
 136 156 l 1
 213 127 333 82 484 82 c 4
 622 82 755 134 755 278 c 0
 755 371 713 442 490 491 c 0
 281 537 91 578 91 781 c 0
 91 962 225 1057 467 1057 c 0
 639 1057 725 1012 806 974 c 1
 806 889 l 1
 768 889 l 1
 711 910 595 956 477 956 c 0
 379 956 214 933 214 778 c 0
 214 684 258 642 516 591 c 1
 763 538 861 457 861 278 c 0
 861 87 741 -19 476 -19 c 0
EndSplineSet
EndChar

StartChar: t
Encoding: 116 116 103
Width: 734
Flags: HW
LayerCount: 2
Fore
SplineSet
506 -13 m 0
 259 -13 189 91 189 328 c 2
 189 941 l 1
 31 941 l 1
 31 1032 l 1
 189 1032 l 1
 189 1316 l 1
 317 1349 l 1
 317 1032 l 1
 657 1032 l 1
 657 941 l 1
 317 941 l 1
 317 319 l 2
 317 154 374 79 503 79 c 0
 552 79 657 94 657 93 c 2
 657 5 l 1
 590 -8 551 -13 506 -13 c 0
EndSplineSet
EndChar

StartChar: u
Encoding: 117 117 104
Width: 1147
Flags: HW
LayerCount: 2
Fore
SplineSet
484 -19 m 0
 264 -19 112 95 112 338 c 2
 112 1032 l 1
 240 1032 l 1
 240 296 l 2
 240 147 375 82 468 82 c 4
 743 82 855 237 892 304 c 1
 892 1032 l 1
 1021 1032 l 1
 1021 0 l 1
 892 0 l 1
 892 177 l 1
 793 23 626 -19 484 -19 c 0
EndSplineSet
EndChar

StartChar: v
Encoding: 118 118 105
Width: 1058
Flags: HW
LayerCount: 2
Fore
SplineSet
441 0 m 1
 19 1032 l 1
 152 1032 l 1
 486 179 l 2
 518 95 504 134 536 49 c 1
 539 49 l 1
 569 134 556 95 587 179 c 2
 892 1032 l 1
 1035 1032 l 1
 625 0 l 1
 441 0 l 1
EndSplineSet
EndChar

StartChar: w
Encoding: 119 119 106
Width: 1567
Flags: HW
LayerCount: 2
Fore
SplineSet
363 0 m 1
 67 1032 l 1
 172 1032 l 1
 285 619 274 714 389 289 c 0
 416 182 411 198 438 93 c 5
 439 93 l 5
 464 198 461 184 488 291 c 0
 600 716 693 1032 693 1032 c 1
 883 1032 l 1
 883 1032 975 727 1087 303 c 0
 1114 198 1110 208 1135 105 c 5
 1162 208 1160 197 1187 302 c 1
 1296 722 1271 625 1381 1032 c 1
 1499 1032 l 1
 1202 0 l 1
 1050 0 l 1
 799 983 l 1
 796 983 l 1
 526 0 l 1
 363 0 l 1
EndSplineSet
EndChar

StartChar: x
Encoding: 120 120 107
Width: 1144
Flags: HW
LayerCount: 2
Fore
SplineSet
62 0 m 1
 492 511 l 1
 55 1032 l 1
 207 1032 l 1
 352 850 325 879 473 699 c 0
 520 639 516 649 563 588 c 1
 610 646 612 646 659 707 c 0
 807 887 773 850 919 1032 c 1
 1087 1032 l 1
 645 507 l 1
 1080 0 l 1
 928 0 l 1
 766 202 782 167 621 368 c 1
 588 408 601 393 567 433 c 5
 516 368 l 1
 218 0 l 1
 62 0 l 1
EndSplineSet
EndChar

StartChar: y
Encoding: 121 121 108
Width: 1064
Flags: HW
LayerCount: 2
Fore
SplineSet
320 -391 m 1
 372 -302 417 -182 464 -63 c 1
 21 1032 l 1
 160 1032 l 1
 533 66 l 1
 906 1032 l 1
 1049 1032 l 1
 588 -102 l 1
 531 -230 455 -389 457 -391 c 1
 320 -391 l 1
EndSplineSet
EndChar

StartChar: z
Encoding: 122 122 109
Width: 941
Flags: HW
LayerCount: 2
Fore
SplineSet
105 0 m 1
 105 108 l 1
 707 941 l 1
 131 941 l 1
 131 1032 l 1
 860 1032 l 1
 860 934 l 1
 249 91 l 1
 866 91 l 1
 866 0 l 1
 105 0 l 1
EndSplineSet
EndChar

StartChar: braceleft
Encoding: 123 123 110
Width: 670
Flags: HW
LayerCount: 2
Fore
SplineSet
576 -50 m 2
 376 -50 271 -11 271 209 c 2
 271 404 l 2
 271 614 190 726 -31 726 c 1
 -31 845 l 1
 188 845 271 963 271 1166 c 2
 271 1328 l 2
 271 1585 378 1622 628 1622 c 2
 696 1622 l 1
 696 1527 l 1
 517 1527 l 2
 423 1527 407 1476 407 1441 c 2
 407 1174 l 2
 407 955 337 834 181 787 c 1
 181 782 l 1
 360 728 407 603 407 358 c 2
 407 88 l 2
 407 81 435 45 524 45 c 2
 696 45 l 1
 696 -50 l 1
 576 -50 l 2
EndSplineSet
EndChar

StartChar: bar
Encoding: 124 124 111
Width: 340
Flags: HW
LayerCount: 2
Fore
SplineSet
106 -272 m 1
 106 1481 l 1
 234 1481 l 1
 234 -272 l 1
 106 -272 l 1
EndSplineSet
EndChar

StartChar: braceright
Encoding: 125 125 112
Width: 670
Flags: HW
LayerCount: 2
Fore
SplineSet
-25 -50 m 1
 -25 43 l 1
 151 43 l 2
 245 43 262 92 262 127 c 2
 262 398 l 2
 262 617 332 735 488 782 c 1
 488 787 l 1
 309 841 262 969 262 1215 c 2
 262 1482 l 2
 262 1489 234 1524 145 1524 c 2
 -25 1524 l 1
 -25 1622 l 1
 96 1622 l 2
 297 1622 400 1578 400 1358 c 2
 400 1166 l 2
 400 956 481 845 702 845 c 1
 702 726 l 1
 483 726 400 606 400 403 c 2
 400 241 l 2
 400 -17 295 -50 46 -50 c 2
 -25 -50 l 1
EndSplineSet
EndChar

StartChar: asciitilde
Encoding: 126 126 113
Width: 1343
Flags: HW
LayerCount: 2
Fore
SplineSet
981 308 m 0
 702 308 431 629 346 629 c 0
 261 629 208 522 226 324 c 1
 78 364 l 1
 94 696 208 788 336 788 c 0
 534 788 814 463 993 463 c 0
 1085 463 1134 587 1117 771 c 1
 1267 746 l 1
 1250 473 1208 308 981 308 c 0
EndSplineSet
EndChar

StartChar: dagger
Encoding: 8224 8224 146
Width: 1053
Flags: HW
LayerCount: 2
Fore
SplineSet
477 -48 m 1
 477 907 l 1
 94 907 l 1
 94 980 l 1
 481 980 l 1
 481 1426 l 1
 593 1426 l 1
 593 978 l 1
 959 978 l 1
 959 903 l 1
 590 903 l 1
 590 -48 l 1
 477 -48 l 1
EndSplineSet
EndChar

StartChar: degree
Encoding: 176 176 147
Width: 811
Flags: HW
LayerCount: 2
Fore
SplineSet
406 760 m 0
 229 760 98 897 98 1069 c 0
 98 1239 231 1373 406 1373 c 0
 585 1373 715 1239 715 1069 c 0
 715 897 585 760 406 760 c 0
406 828 m 0
 556 828 630 939 630 1069 c 0
 630 1195 557 1304 406 1304 c 0
 253 1304 181 1195 181 1069 c 0
 181 940 257 828 406 828 c 0
EndSplineSet
EndChar

StartChar: cent
Encoding: 162 162 148
Width: 912
Flags: HW
LayerCount: 2
Fore
SplineSet
514 -19 m 1
 644 -15 751 24 801 64 c 1
 772 155 l 1
 760 150 642 92 514 83 c 1
 514 -19 l 1
514 -19 m 1
 514 -289 l 1
 444 -289 l 1
 444 -18 l 1
 459 -19 474 -19 490 -19 c 0
 498 -19 506 -19 514 -19 c 1
514 83 m 1
 503 82 491 82 480 82 c 0
 468 82 456 82 444 83 c 1
 444 954 l 1
 453 955 461 955 470 955 c 0
 485 955 500 954 514 953 c 1
 514 83 l 1
514 953 m 1
 677 941 787 869 781 879 c 1
 814 971 l 1
 713 1026 616 1049 514 1054 c 1
 514 953 l 1
514 1054 m 1
 498 1055 482 1055 465 1055 c 0
 458 1055 451 1055 444 1055 c 1
 444 1302 l 1
 514 1302 l 1
 514 1054 l 1
444 83 m 1
 220 100 86 280 86 510 c 0
 86 754 223 940 444 954 c 1
 444 1055 l 1
 179 1045 -35 844 -35 511 c 0
 -35 165 162 -2 444 -18 c 1
 444 83 l 1
EndSplineSet
EndChar

StartChar: sterling
Encoding: 163 163 149
Width: 1219
Flags: HW
LayerCount: 2
Fore
SplineSet
817 -44 m 0
 659 -44 461 10 300 10 c 0
 231 10 163 -9 87 -19 c 1
 87 88 l 1
 152 95 230 98 267 107 c 1
 400 413 400 563 400 616 c 0
 400 738 384 740 384 740 c 1
 96 740 l 1
 96 809 l 1
 369 809 l 1
 338 961 238 1102 238 1212 c 0
 238 1392 455 1505 714 1505 c 0
 865 1505 1014 1457 1071 1399 c 1
 1061 1292 l 1
 1010 1292 l 1
 932 1410 816 1409 727 1409 c 0
 480 1409 387 1340 387 1181 c 0
 387 1106 481 874 495 809 c 1
 971 809 l 1
 971 740 l 1
 516 740 l 1
 516 730 523 580 523 570 c 0
 523 470 419 219 351 112 c 1
 441 110 667 59 756 59 c 0
 849 59 1023 110 1116 126 c 1
 1137 15 l 1
 1029 -12 922 -44 817 -44 c 0
EndSplineSet
EndChar

StartChar: section
Encoding: 167 167 150
Width: 977
Flags: HW
LayerCount: 2
Fore
SplineSet
599 364 m 1
 600 363 l 1
 694 391 750 443 750 575 c 0
 750 638 729 707 505 756 c 1
 497 759 490 761 479 764 c 1
 298 761 203 691 203 575 c 0
 203 476 252 433 548 375 c 0
 571 370 577 369 599 364 c 1
491 -238 m 1
 359 -238 203 -213 99 -150 c 1
 121 -60 l 1
 201 -95 320 -130 481 -130 c 0
 678 -130 757 -90 757 60 c 0
 757 153 729 234 505 283 c 0
 297 329 94 360 94 563 c 0
 94 697 145 786 273 821 c 1
 167 862 94 928 94 1051 c 0
 94 1229 187 1323 429 1323 c 0
 601 1323 725 1288 807 1252 c 1
 800 1134 l 1
 776 1140 596 1209 453 1209 c 0
 353 1209 224 1208 224 1056 c 0
 224 946 270 915 541 842 c 1
 804 765 885 727 885 530 c 0
 885 420 856 342 771 299 c 1
 852 251 885 174 885 55 c 0
 885 -137 800 -233 491 -238 c 1
EndSplineSet
EndChar

StartChar: bullet
Encoding: 8226 8226 151
Width: 1061
Flags: HW
LayerCount: 2
Fore
SplineSet
534 219 m 0
 278 219 95 405 95 651 c 0
 95 895 281 1078 534 1078 c 0
 788 1078 966 895 966 651 c 0
 966 404 786 219 534 219 c 0
EndSplineSet
EndChar

StartChar: paragraph
Encoding: 182 182 152
Width: 1080
Flags: HW
LayerCount: 2
Fore
SplineSet
588 -257 m 1
 588 880 l 1
 226 880 88 945 88 1184 c 0
 88 1421 228 1481 595 1481 c 2
 979 1481 l 1
 979 -257 l 1
 877 -257 l 1
 877 1388 l 1
 687 1388 l 1
 687 -257 l 1
 588 -257 l 1
EndSplineSet
EndChar

StartChar: germandbls
Encoding: 223 223 153
Width: 1237
Flags: HW
LayerCount: 2
Fore
SplineSet
125 0 m 1
 125 1034 l 2
 125 1334 261 1503 599 1503 c 0
 790 1503 984 1381 984 1183 c 0
 984 1097 899 944 733 919 c 1
 1003 852 1155 660 1155 428 c 0
 1155 234 992 4 567 4 c 0
 552 4 447 4 423 3 c 1
 423 82 l 1
 407 84 574 84 595 84 c 0
 901 84 1038 257 1038 440 c 0
 1038 658 886 870 539 870 c 1
 539 949 l 1
 825 949 867 1090 867 1200 c 0
 867 1307 752 1409 573 1409 c 0
 421 1409 252 1332 252 1055 c 2
 252 0 l 1
 125 0 l 1
423 3 m 1
 417 3 416 2 423 2 c 1
 423 3 l 1
EndSplineSet
EndChar

StartChar: registered
Encoding: 174 174 154
Width: 1711
Flags: HW
LayerCount: 2
Fore
SplineSet
854 -127 m 0
 458 -127 95 192 95 607 c 0
 95 998 442 1344 854 1344 c 0
 1253 1344 1616 1002 1616 607 c 0
 1616 216 1266 -127 854 -127 c 0
854 -40 m 0
 1183 -40 1513 230 1513 605 c 0
 1513 985 1183 1257 854 1257 c 0
 510 1257 187 974 187 607 c 0
 187 224 525 -40 854 -40 c 0
651 663 m 1
 893 663 l 2
 1002 663 1072 718 1072 791 c 0
 1072 883 1091 950 843 950 c 2
 651 950 l 1
 651 663 l 1
546 228 m 1
 546 1033 l 1
 843 1033 l 2
 1015 1033 1177 997 1177 810 c 0
 1177 677 1081 597 974 596 c 1
 1202 273 l 1
 1202 228 l 1
 1120 228 l 1
 875 582 l 1
 651 582 l 1
 651 228 l 1
 546 228 l 1
EndSplineSet
EndChar

StartChar: copyright
Encoding: 169 169 155
Width: 1709
Flags: HW
LayerCount: 2
Fore
SplineSet
852 -127 m 0
 456 -127 93 192 93 607 c 0
 93 998 440 1344 852 1344 c 0
 1252 1344 1614 1002 1614 607 c 0
 1614 216 1264 -127 852 -127 c 0
852 -40 m 0
 1181 -40 1511 230 1511 605 c 0
 1511 985 1181 1257 852 1257 c 0
 509 1257 185 974 185 607 c 0
 185 224 524 -40 852 -40 c 0
876 213 m 0
 693 213 475 304 475 613 c 0
 475 851 623 998 848 998 c 0
 933 998 1027 981 1111 916 c 1
 1081 856 l 1
 948 934 929 921 851 921 c 0
 736 921 584 841 584 610 c 0
 584 377 735 288 889 288 c 0
 998 288 1107 360 1107 360 c 1
 1153 298 l 1
 1049 228 969 213 876 213 c 0
EndSplineSet
EndChar

StartChar: trademark
Encoding: 8482 8482 156
Width: 1391
Flags: HW
LayerCount: 2
Fore
SplineSet
275 769 m 1
 275 1416 l 1
 86 1416 l 1
 86 1481 l 1
 540 1481 l 1
 540 1416 l 1
 351 1416 l 1
 351 769 l 1
 275 769 l 1
650 769 m 1
 650 1481 l 1
 782 1481 l 1
 973 1006 l 1
 1169 1481 l 1
 1292 1481 l 1
 1292 769 l 1
 1201 769 l 1
 1201 1380 l 1
 1197 1380 l 1
 999 918 l 1
 943 918 l 1
 737 1383 l 1
 735 1383 l 1
 735 769 l 1
 650 769 l 1
EndSplineSet
EndChar

StartChar: acute
Encoding: 180 180 157
Width: 340
Flags: HW
LayerCount: 2
Fore
SplineSet
-20 1110 m 1
 172 1452 l 1
 358 1452 l 1
 73 1110 l 1
 -20 1110 l 1
EndSplineSet
EndChar

StartChar: dieresis
Encoding: 168 168 158
Width: 672
Flags: HW
LayerCount: 2
Fore
SplineSet
386 1228 m 1
 386 1419 l 1
 548 1419 l 1
 548 1228 l 1
 386 1228 l 1
117 1228 m 1
 117 1419 l 1
 281 1419 l 1
 281 1228 l 1
 117 1228 l 1
EndSplineSet
EndChar

StartChar: notequal
Encoding: 8800 8800 159
Width: 1105
Flags: HW
LayerCount: 2
Fore
SplineSet
229 28 m 1
 384 322 l 1
 107 322 l 1
 91 379 l 1
 416 379 l 1
 583 712 l 1
 107 712 l 1
 107 772 l 1
 605 772 l 1
 757 1040 l 1
 825 1051 l 1
 677 772 l 1
 1007 772 l 1
 1007 712 l 1
 662 712 l 1
 491 379 l 1
 990 379 l 1
 1007 322 l 1
 459 322 l 1
 313 37 l 1
 229 28 l 1
EndSplineSet
EndChar

StartChar: AE
Encoding: 198 198 160
Width: 1801
Flags: HW
LayerCount: 2
Fore
SplineSet
428 461 m 1
 973 461 l 1
 973 1341 l 1
 428 461 l 1
-19 0 m 1
 939 1481 l 1
 1658 1481 l 1
 1658 1386 l 1
 1099 1386 l 1
 1099 826 l 1
 1576 826 l 1
 1576 731 l 1
 1099 731 l 1
 1099 95 l 1
 1655 95 l 1
 1655 0 l 1
 973 0 l 1
 973 367 l 1
 361 367 l 1
 125 0 l 1
 -19 0 l 1
EndSplineSet
EndChar

StartChar: Oslash
Encoding: 216 216 161
Width: 1578
Flags: HW
LayerCount: 2
Fore
SplineSet
229 0 m 1
 85 0 l 1
 1313 1481 l 1
 1460 1481 l 1
 229 0 l 1
EndSplineSet
Refer: 66 79 N 1 0 0 1 0 0 2
EndChar

StartChar: infinity
Encoding: 8734 8734 162
Width: 1544
Flags: HW
LayerCount: 2
Fore
SplineSet
1169 299 m 0
 1271 299 1370 382 1370 547 c 0
 1370 718 1267 801 1165 801 c 0
 1069 801 870 652 804 550 c 1
 887 429 1080 299 1169 299 c 0
398 306 m 0
 490 306 668 443 739 551 c 1
 667 666 491 807 393 807 c 0
 291 807 190 701 190 556 c 0
 190 407 296 306 398 306 c 0
1132 203 m 0
 1001 203 875 341 773 495 c 1
 678 359 552 209 410 209 c 0
 221 209 98 351 98 557 c 0
 98 751 223 901 412 901 c 0
 554 901 684 749 775 609 c 1
 864 736 989 897 1137 897 c 0
 1330 897 1446 757 1446 550 c 0
 1446 355 1313 203 1132 203 c 0
EndSplineSet
EndChar

StartChar: plusminus
Encoding: 177 177 163
Width: 1225
Flags: HW
LayerCount: 2
Fore
SplineSet
234 0 m 1
 234 99 l 1
 988 99 l 1
 988 0 l 1
 234 0 l 1
556 291 m 1
 556 670 l 1
 204 670 l 1
 204 767 l 1
 556 767 l 1
 556 1120 l 1
 648 1120 l 1
 648 767 l 1
 1022 767 l 1
 1022 670 l 1
 648 670 l 1
 648 291 l 1
 556 291 l 1
EndSplineSet
EndChar

StartChar: lessequal
Encoding: 8804 8804 164
Width: 1100
Flags: HW
LayerCount: 2
Fore
SplineSet
97 0 m 1
 97 168 l 1
 998 168 l 1
 998 0 l 1
 97 0 l 1
987 220 m 1
 115 603 l 1
 115 754 l 1
 987 1149 l 1
 987 957 l 1
 326 679 l 1
 987 410 l 1
 987 220 l 1
EndSplineSet
EndChar

StartChar: greaterequal
Encoding: 8805 8805 165
Width: 1063
Flags: HW
LayerCount: 2
Fore
SplineSet
101 0 m 1
 101 168 l 1
 962 168 l 1
 962 0 l 1
 101 0 l 1
119 220 m 1
 119 410 l 1
 750 677 l 1
 119 957 l 1
 119 1149 l 1
 951 751 l 1
 951 603 l 1
 119 220 l 1
EndSplineSet
EndChar

StartChar: yen
Encoding: 165 165 166
Width: 1418
Flags: HW
LayerCount: 2
Back
SplineSet
632 0 m 5
 632 352 l 5
 258 352 l 5
 258 408 l 5
 632 408 l 5
 632 595 l 5
 258 595 l 5
 258 660 l 5
 681 660 l 5
 88 1481 l 5
 208 1481 l 5
 692 799 l 5
 1227 1481 l 5
 1360 1481 l 5
 707 660 l 5
 1192 660 l 5
 1192 595 l 5
 761 595 l 5
 761 408 l 5
 1192 408 l 5
 1192 352 l 5
 761 352 l 5
 761 0 l 5
 632 0 l 5
EndSplineSet
Fore
SplineSet
617 0 m 1
 617 352 l 1
 243 352 l 1
 243 408 l 1
 617 408 l 1
 617 595 l 1
 243 595 l 1
 243 660 l 1
 617 660 l 1
 73 1481 l 1
 193 1481 l 1
 681 739.5 l 1
 1212 1481 l 1
 1345 1481 l 1
 746 660 l 1
 1129 660 l 1
 1129 595 l 1
 746 595 l 1
 746 408 l 1
 1129 408 l 1
 1129 352 l 1
 746 352 l 1
 746 0 l 1
 617 0 l 1
EndSplineSet
EndChar

StartChar: partialdiff
Encoding: 8706 8706 167
Width: 1090
Flags: HW
LayerCount: 2
Fore
SplineSet
480 187 m 0
 613 187 716 377 742 609 c 1
 721 696 659 761 569 761 c 0
 432 761 326 576 326 398 c 0
 326 265 378 187 480 187 c 0
443 -16 m 0
 192 -16 53 161 53 396 c 0
 53 707 248 951 514 951 c 0
 633 951 721 885 766 814 c 1
 770 814 l 1
 773 832 773 850 773 857 c 0
 773 1068 690 1210 547 1231 c 1
 434 1253 338 1212 262 1166 c 1
 286 1367 l 1
 365 1412 466 1445 600 1439 c 1
 868 1423 1027 1251 1039 899 c 0
 1042 837 1034 773 1028 707 c 0
 983 267 781 -16 443 -16 c 0
EndSplineSet
EndChar

StartChar: summation
Encoding: 8721 8721 168
Width: 1092
Flags: HW
LayerCount: 2
Fore
SplineSet
90 0 m 1
 90 23 l 1
 650 739 l 1
 113 1424 l 1
 113 1481 l 1
 964 1481 l 1
 964 1421 l 1
 190 1421 l 1
 715 736 l 1
 192 63 l 1
 998 63 l 1
 998 0 l 1
 90 0 l 1
EndSplineSet
EndChar

StartChar: product
Encoding: 8719 8719 169
Width: 1258
Flags: HW
LayerCount: 2
Fore
SplineSet
106 -265 m 1
 106 1428 l 1
 1152 1428 l 1
 1152 -265 l 1
 1025 -265 l 1
 1025 1372 l 1
 232 1372 l 1
 232 -265 l 1
 106 -265 l 1
EndSplineSet
EndChar

StartChar: pi
Encoding: 960 960 170
Width: 1198
Flags: HW
LayerCount: 2
Fore
SplineSet
154 0 m 1
 184 82 199 203 209 332 c 1
 215 481 223 642 227 776 c 1
 146 776 81 756 17 717 c 1
 8 919 l 1
 77 967 180 976 328 976 c 2
 1152 976 l 1
 1147 776 l 1
 969 776 l 1
 969 355 l 2
 969 286 989 251 1024 237 c 1
 1042 183 1062 163 1086 149 c 1
 1024 6 l 1
 988 -4 951 1 914 7 c 1
 784 32 717 145 717 326 c 2
 717 776 l 1
 477 776 l 1
 475 635 467 472 460 316 c 0
 454 183 435 71 409 0 c 1
 154 0 l 1
EndSplineSet
EndChar

StartChar: integral
Encoding: 8747 8747 171
Width: 788
Flags: HW
LayerCount: 2
Fore
SplineSet
173 -408 m 0
 116 -408 67 -397 32 -385 c 1
 25 -288 l 1
 56 -301 124 -311 155 -311 c 0
 241 -311 303 -275 303 2 c 2
 303 1101 l 2
 303 1368 397 1515 622 1515 c 0
 675 1515 722 1508 755 1498 c 1
 762 1417 l 1
 732 1430 636 1439 605 1439 c 0
 483 1439 443 1335 443 1110 c 2
 443 -153 l 1
 427 -281 341 -408 173 -408 c 0
EndSplineSet
EndChar

StartChar: ordfeminine
Encoding: 170 170 172
Width: 786
Flags: HW
LayerCount: 2
Fore
SplineSet
330 768 m 0
 428 768 529 845 550 881 c 1
 550 1029 l 1
 321 1029 213 977 213 891 c 0
 213 837 229 768 330 768 c 0
307 654 m 0
 224 654 93 710 93 877 c 0
 93 1068 257 1115 550 1115 c 1
 550 1263 519 1323 394 1323 c 0
 292 1323 230 1304 154 1271 c 1
 121 1367 l 1
 195 1403 262 1428 382 1428 c 0
 619 1428 684 1326 684 1139 c 2
 684 668 l 1
 550 668 l 1
 550 734 l 1
 548 734 l 1
 494 680 397 654 307 654 c 0
EndSplineSet
EndChar

StartChar: ordmasculine
Encoding: 186 186 173
Width: 868
Flags: HW
LayerCount: 2
Fore
SplineSet
434 644 m 0
 229 644 97 783 97 1037 c 0
 97 1294 233 1428 434 1428 c 0
 640 1428 770 1294 770 1037 c 0
 770 783 640 644 434 644 c 0
434 762 m 0
 581 762 652 833 652 1037 c 0
 652 1261 579 1331 434 1331 c 0
 309 1331 211 1288 211 1037 c 0
 211 817 283 762 434 762 c 0
EndSplineSet
EndChar

StartChar: Omega
Encoding: 937 937 174
Width: 1413
Flags: HW
LayerCount: 2
Fore
SplineSet
77 0 m 1
 77 214 l 1
 375 214 l 1
 204 311 87 518 87 764 c 0
 87 1117 343 1358 705 1358 c 0
 1080 1358 1326 1091 1326 766 c 0
 1326 519 1213 332 1032 215 c 1
 1105 214 l 1
 1333 214 l 1
 1333 0 l 1
 804 0 l 1
 804 197 l 1
 949 316 1041 491 1041 723 c 0
 1041 952 912 1132 712 1132 c 0
 512 1132 368 972 368 718 c 0
 368 504 446 332 607 197 c 1
 607 0 l 1
 77 0 l 1
EndSplineSet
EndChar

StartChar: ae
Encoding: 230 230 175
Width: 1755
Flags: HW
LayerCount: 2
Fore
SplineSet
889 581 m 1
 1533 581 l 1
 1531 718 1468 935 1243 935 c 0
 1017 935 896 731 889 581 c 1
399 79 m 0
 685 79 787 207 792 524 c 1
 217 533 209 408 209 293 c 0
 209 147 283 79 399 79 c 0
414 -23 m 0
 297 -23 94 46 94 304 c 0
 94 447 141 572 526 613 c 1
 615 621 631 625 793 625 c 1
 785 816 779 944 514 944 c 0
 379 944 271 917 176 874 c 1
 153 987 l 1
 220 1033 391 1058 495 1058 c 0
 670 1058 812 1012 855 831 c 1
 903 960 1103 1055 1225 1055 c 0
 1540 1055 1669 783 1669 482 c 2
 1669 476 l 1
 884 476 l 1
 877 274 1030 108 1275 108 c 0
 1449 108 1554 166 1600 208 c 1
 1642 102 l 1
 1558 47 1472 -19 1290 -19 c 0
 1034 -19 890 101 851 230 c 1
 812 93 661 -23 414 -23 c 0
1600 208 m 1
 1602 209 1603 211 1604 212 c 1
 1598 212 l 1
 1600 208 l 1
EndSplineSet
EndChar

StartChar: oslash
Encoding: 248 248 176
Width: 1197
Flags: HW
LayerCount: 2
Fore
SplineSet
200 0 m 1
 75 0 l 1
 994 1032 l 1
 1121 1032 l 1
 200 0 l 1
EndSplineSet
Refer: 98 111 N 1 0 0 1 0 0 2
EndChar

StartChar: questiondown
Encoding: 191 191 177
Width: 980
Flags: HW
LayerCount: 2
Fore
SplineSet
723 1046 m 0
 792 1046 851 991 851 922 c 0
 851 852 792 794 723 794 c 0
 653 794 601 852 601 922 c 0
 601 991 653 1046 723 1046 c 0
747 624 m 1
 793 599 l 1
 634 374 368 40 368 -154 c 0
 368 -245 410 -355 606 -355 c 0
 738 -355 854 -319 988 -237 c 1
 988 -337 l 1
 929 -373 784 -454 607 -454 c 0
 369 -454 267 -307 267 -159 c 0
 267 91 545 411 747 624 c 1
EndSplineSet
EndChar

StartChar: exclamdown
Encoding: 161 161 178
Width: 469
Flags: HW
LayerCount: 2
Fore
SplineSet
379 582 m 1
 444 -430 l 1
 275 -430 l 1
 337 582 l 1
 379 582 l 1
360 1048 m 0
 433 1048 496 990 496 915 c 0
 496 841 433 782 360 782 c 0
 287 782 223 841 223 915 c 0
 223 990 287 1048 360 1048 c 0
EndSplineSet
EndChar

StartChar: logicalnot
Encoding: 172 172 179
Width: 1011
Flags: HW
LayerCount: 2
Fore
SplineSet
900 412 m 1
 900 753 l 1
 101 753 l 1
 101 775 l 1
 906 775 l 1
 906 412 l 1
 900 412 l 1
EndSplineSet
EndChar

StartChar: radical
Encoding: 8730 8730 180
Width: 1095
Flags: HW
LayerCount: 2
Fore
SplineSet
505 -100 m 1
 292 700 l 1
 48 664 l 1
 35 771 l 1
 356 813 l 1
 525 173 l 1
 540 128 583 -31 591 -76 c 1
 653 180 l 2
 744 552 850 1099 941 1471 c 1
 1064 1471 l 1
 685 -100 l 1
 505 -100 l 1
EndSplineSet
EndChar

StartChar: florin
Encoding: 402 402 181
Width: 1166
Flags: HW
LayerCount: 2
Fore
SplineSet
216 -177 m 0
 172 -177 138 -169 114 -163 c 1
 122 -64 l 1
 146 -72 206 -81 236 -81 c 0
 327 -81 403 -55 452 237 c 1
 433 101 491 468 532 750 c 1
 261 750 l 1
 275 828 l 1
 540 828 l 1
 565 995 575 1053 575 1053 c 1
 624 1334 764 1483 1002 1483 c 0
 1040 1483 1075 1477 1099 1472 c 1
 1093 1393 l 1
 1070 1400 983 1406 952 1406 c 0
 819 1406 758 1307 716 1071 c 1
 716 1071 705 987 681 828 c 1
 1001 828 l 1
 988 750 l 1
 668 750 l 1
 627 474 571 89 570 93 c 1
 526 -50 406 -177 216 -177 c 0
EndSplineSet
EndChar

StartChar: approxequal
Encoding: 8776 8776 182
Width: 1030
Flags: HW
LayerCount: 2
Fore
SplineSet
189 623 m 1
 83 643 l 1
 106 815 162 858 322 858 c 0
 399 858 473 828 542 788 c 0
 605 752 740 730 706 728 c 1
 784 729 834 777 845 862 c 1
 948 841 l 1
 925 674 874 625 716 625 c 0
 649 625 576 651 484 705 c 1
 418 741 368 765 330 765 c 0
 248 765 206 710 189 623 c 1
189 235 m 1
 83 257 l 1
 106 430 162 478 321 478 c 0
 400 478 471 445 542 406 c 1
 615 363 684 334 716 345 c 1
 789 355 836 397 845 480 c 1
 948 459 l 1
 925 292 876 242 716 242 c 0
 651 242 579 270 484 321 c 0
 415 358 367 382 330 382 c 0
 248 382 206 324 189 235 c 1
EndSplineSet
EndChar

StartChar: Delta
Encoding: 916 916 183
Width: 1160
Flags: HW
LayerCount: 2
Fore
SplineSet
275 73 m 2
 881 73 l 1
 881 73 580 1413 594 1342 c 1
 588 1342 l 1
 572 1265 280 73 275 73 c 2
84 0 m 1
 84 35 l 1
 480 1368 l 1
 695 1368 l 1
 1075 38 l 1
 1075 0 l 1
 84 0 l 1
EndSplineSet
EndChar

StartChar: guillemotleft
Encoding: 171 171 184
Width: 781
Flags: HW
LayerCount: 2
Fore
SplineSet
805 184 m 1
 805 184 515 396 331 533 c 1
 331 635 l 1
 517 788 805 996 805 996 c 1
 805 857 l 1
 394 580 l 1
 394 580 756 329 805 300 c 1
 805 184 l 1
444 184 m 1
 444 184 155 396 -28 533 c 1
 -28 635 l 1
 157 788 444 996 444 996 c 1
 444 857 l 1
 35 580 l 1
 35 580 395 330 444 301 c 1
 444 184 l 1
805 300 m 1
 812 296 813 297 805 303 c 1
 805 300 l 1
444 301 m 1
 451 297 452 297 444 303 c 1
 444 301 l 1
EndSplineSet
EndChar

StartChar: guillemotright
Encoding: 187 187 185
Width: 950
Flags: HW
LayerCount: 2
Fore
SplineSet
425 183 m 1
 425 325 l 1
 836 602 l 1
 836 602 474 853 425 882 c 1
 425 996 l 1
 425 996 715 785 898 648 c 1
 898 544 l 1
 713 391 425 183 425 183 c 1
65 183 m 1
 65 325 l 1
 478 602 l 1
 478 602 114 854 65 883 c 1
 65 996 l 1
 65 996 358 785 541 648 c 1
 541 544 l 1
 356 391 65 183 65 183 c 1
425 882 m 1
 418 886 417 886 425 880 c 1
 425 882 l 1
65 883 m 1
 58 887 57 886 65 880 c 1
 65 883 l 1
EndSplineSet
EndChar

StartChar: ellipsis
Encoding: 8230 8230 186
Width: 1418
Flags: HW
LayerCount: 2
Fore
SplineSet
1984 6 m 0
 1912 6 1853 61 1853 133 c 0
 1853 201 1912 258 1984 258 c 0
 2053 258 2110 201 2110 133 c 0
 2110 61 2053 6 1984 6 c 0
717 6 m 0
 645 6 586 61 586 133 c 0
 586 201 645 258 717 258 c 0
 786 258 843 201 843 133 c 0
 843 61 786 6 717 6 c 0
-551 6 m 0
 -623 6 -682 61 -682 133 c 0
 -682 201 -623 258 -551 258 c 0
 -482 258 -425 201 -425 133 c 0
 -425 61 -482 6 -551 6 c 0
EndSplineSet
EndChar

StartChar: OE
Encoding: 338 338 190
Width: 1854
Flags: HW
LayerCount: 2
Fore
SplineSet
722 96 m 2
 1033 96 l 1
 1033 1387 l 1
 727 1387 l 2
 376 1387 261 1076 261 764 c 0
 261 451 356 96 722 96 c 2
777 0 m 2
 125 0 134 520 134 766 c 0
 134 1091 281 1481 715 1481 c 2
 1792 1481 l 1
 1792 1387 l 1
 1160 1387 l 1
 1160 834 l 1
 1711 834 l 1
 1711 739 l 1
 1160 739 l 1
 1160 96 l 1
 1792 96 l 1
 1792 0 l 1
 777 0 l 2
EndSplineSet
EndChar

StartChar: oe
Encoding: 339 339 191
Width: 1853
Flags: HW
LayerCount: 2
Fore
SplineSet
1039 589 m 1
 1646 589 l 1
 1641 717 1579 920 1366 920 c 0
 1113 920 1059 696 1039 589 c 1
534 96 m 0
 675 96 885 186 885 511 c 0
 885 868 717 936 527 936 c 0
 423 936 182 839 182 511 c 0
 182 175 402 96 534 96 c 0
531 -27 m 1
 540 -27 48 -6 48 514 c 0
 48 1047 558 1052 537 1052 c 1
 766 1052 905 919 947 795 c 1
 996 891 1109 1045 1321 1045 c 0
 1632 1045 1765 791 1765 485 c 2
 1765 477 l 1
 1030 468 l 1
 1028 302 1123 92 1391 92 c 0
 1592 92 1628 148 1651 180 c 1
 1718 180 l 1
 1758 103 l 1
 1677 47 1591 -23 1371 -23 c 0
 1199 -23 1032 73 958 203 c 1
 874 71 750 -27 531 -27 c 1
EndSplineSet
EndChar

StartChar: endash
Encoding: 8211 8211 192
Width: 1484
Flags: HW
LayerCount: 2
Fore
SplineSet
106 672 m 1
 106 713 l 1
 1378 713 l 1
 1378 672 l 1
 106 672 l 1
EndSplineSet
EndChar

StartChar: emdash
Encoding: 8212 8212 193
Width: 2129
Flags: HW
LayerCount: 2
Fore
SplineSet
106 672 m 1
 106 713 l 1
 2023 713 l 1
 2023 672 l 1
 106 672 l 1
EndSplineSet
EndChar

StartChar: quotedblleft
Encoding: 8220 8220 194
Width: 655
Flags: HW
LayerCount: 2
Fore
SplineSet
505 1027 m 1
 332 1481 l 1
 490 1481 l 1
 584 1027 l 1
 505 1027 l 1
226 1027 m 1
 53 1481 l 1
 210 1481 l 1
 306 1027 l 1
 226 1027 l 1
EndSplineSet
EndChar

StartChar: quotedblright
Encoding: 8221 8221 195
Width: 657
Flags: HW
LayerCount: 2
Fore
SplineSet
364 995 m 1
 449 1481 l 1
 610 1481 l 1
 450 995 l 1
 364 995 l 1
68 995 m 1
 152 1481 l 1
 311 1481 l 1
 155 995 l 1
 68 995 l 1
EndSplineSet
EndChar

StartChar: quoteleft
Encoding: 8216 8216 196
Width: 352
Flags: HW
LayerCount: 2
Fore
SplineSet
210 1027 m 1
 47 1481 l 1
 205 1481 l 1
 300 1027 l 1
 210 1027 l 1
EndSplineSet
EndChar

StartChar: quoteright
Encoding: 8217 8217 197
Width: 357
Flags: HW
LayerCount: 2
Fore
SplineSet
52 995 m 1
 152 1481 l 1
 311 1481 l 1
 155 995 l 1
 52 995 l 1
EndSplineSet
EndChar

StartChar: divide
Encoding: 247 247 198
Width: 1017
Flags: HW
LayerCount: 2
Fore
SplineSet
481 654 m 0
 420 654 372 706 372 767 c 0
 372 827 420 875 481 875 c 0
 542 875 592 827 592 767 c 0
 592 706 542 654 481 654 c 0
109 403 m 1
 109 486 l 1
 909 486 l 1
 909 403 l 1
 109 403 l 1
481 0 m 0
 420 0 372 50 372 109 c 0
 372 170 420 219 481 219 c 0
 542 219 592 170 592 109 c 0
 592 50 542 0 481 0 c 0
EndSplineSet
EndChar

StartChar: lozenge
Encoding: 9674 9674 199
Width: 947
Flags: HW
LayerCount: 2
Fore
SplineSet
472 26 m 1
 472 20 801 664 801 667 c 1
 801 667 478 1316 477 1318 c 1
 477 1316 148 674 144 674 c 1
 472 26 l 1
439 -30 m 1
 75 668 l 1
 442 1371 l 1
 520 1371 l 1
 872 670 l 1
 501 -30 l 1
 439 -30 l 1
EndSplineSet
EndChar

StartChar: fraction
Encoding: 8260 8260 202
Width: 776
Flags: HW
LayerCount: 2
Fore
SplineSet
30 10 m 1
 658 1450 l 1
 746 1450 l 1
 123 10 l 1
 30 10 l 1
EndSplineSet
EndChar

StartChar: currency
Encoding: 164 164 203
Width: 1063
Flags: HW
LayerCount: 2
Fore
SplineSet
535 423 m 0
 684 423 782 524 782 684 c 0
 782 842 684 943 535 943 c 0
 390 943 289 842 289 684 c 0
 289 524 390 423 535 423 c 0
204 251 m 1
 100 352 l 1
 195 447 l 1
 154 499 120 588 120 684 c 0
 120 780 153 866 195 922 c 1
 100 1016 l 1
 204 1115 l 1
 297 1022 l 1
 351 1064 440 1097 535 1097 c 0
 631 1097 714 1065 771 1024 c 1
 865 1115 l 1
 964 1016 l 1
 872 922 l 1
 914 866 947 780 947 684 c 0
 947 588 914 499 872 445 c 1
 964 352 l 1
 865 251 l 1
 771 347 l 1
 714 305 631 272 535 272 c 0
 440 272 351 307 297 347 c 1
 204 251 l 1
EndSplineSet
EndChar

StartChar: guilsinglleft
Encoding: 8249 8249 204
Width: 516
Flags: HW
LayerCount: 2
Fore
SplineSet
514 183 m 1
 514 183 100 457 -2 533 c 1
 -2 633 l 1
 100 719 514 996 514 996 c 1
 514 856 l 1
 52 577 l 1
 106 548 470 319 514 298 c 1
 514 183 l 1
514 298 m 1
 520 295 520 296 514 301 c 1
 514 298 l 1
EndSplineSet
EndChar

StartChar: guilsinglright
Encoding: 8250 8250 205
Width: 683
Flags: HW
LayerCount: 2
Fore
SplineSet
87 183 m 1
 87 325 l 1
 547 608 l 1
 493 637 131 862 87 883 c 1
 87 996 l 1
 87 996 501 724 603 648 c 1
 603 544 l 1
 501 458 87 183 87 183 c 1
87 883 m 1
 81 886 81 885 87 880 c 1
 87 883 l 1
EndSplineSet
EndChar

StartChar: daggerdbl
Encoding: 8225 8225 206
Width: 1063
Flags: HW
LayerCount: 2
Fore
SplineSet
471 -51 m 1
 471 416 l 1
 105 416 l 1
 105 492 l 1
 472 492 l 1
 472 876 l 1
 93 876 l 1
 93 950 l 1
 473 950 l 1
 473 1426 l 1
 592 1426 l 1
 592 948 l 1
 958 948 l 1
 958 873 l 1
 591 873 l 1
 591 489 l 1
 969 489 l 1
 969 414 l 1
 589 414 l 1
 589 -51 l 1
 471 -51 l 1
EndSplineSet
EndChar

StartChar: periodcentered
Encoding: 183 183 207
Width: 473
Flags: HW
LayerCount: 2
Fore
SplineSet
238 489 m 0
 163 489 100 548 100 623 c 0
 100 696 163 756 238 756 c 0
 311 756 372 696 372 623 c 0
 372 548 311 489 238 489 c 0
EndSplineSet
EndChar

StartChar: quotesinglbase
Encoding: 8218 8218 208
Width: 416
Flags: HW
LayerCount: 2
Fore
SplineSet
49 -245 m 1
 146 241 l 1
 373 241 l 1
 184 -245 l 1
 49 -245 l 1
EndSplineSet
EndChar

StartChar: quotedblbase
Encoding: 8222 8222 209
Width: 844
Flags: HW
LayerCount: 2
Fore
SplineSet
433 -245 m 1
 530 241 l 1
 808 241 l 1
 590 -245 l 1
 433 -245 l 1
47 -245 m 1
 145 241 l 1
 420 241 l 1
 203 -245 l 1
 47 -245 l 1
EndSplineSet
EndChar

StartChar: perthousand
Encoding: 8240 8240 210
Width: 2459
Flags: HW
LayerCount: 2
Fore
SplineSet
2105 -3 m 0
 1903 -3 1783 101 1783 326 c 0
 1783 586 1890 703 2105 703 c 0
 2309 703 2423 596 2423 375 c 0
 2423 115 2326 -3 2105 -3 c 0
2105 164 m 0
 2185 164 2200 223 2202 357 c 1
 2202 468 2192 537 2105 537 c 0
 2016 537 2010 465 2010 346 c 0
 2010 242 2014 164 2105 164 c 0
1336 -3 m 0
 1134 -3 1016 101 1016 326 c 0
 1016 586 1121 703 1336 703 c 0
 1540 703 1655 596 1655 375 c 0
 1655 115 1557 -3 1336 -3 c 0
1336 164 m 0
 1416 164 1433 223 1433 357 c 0
 1433 468 1423 537 1336 537 c 0
 1247 537 1237 465 1237 346 c 0
 1237 241 1245 164 1336 164 c 0
352 0 m 1
 1081 1384 l 1
 1322 1384 l 1
 596 0 l 1
 352 0 l 1
354 681 m 0
 151 681 34 787 34 1011 c 0
 34 1273 138 1389 354 1389 c 0
 558 1389 674 1282 674 1061 c 0
 674 800 574 681 354 681 c 0
354 849 m 0
 434 849 449 908 451 1043 c 1
 451 1154 440 1225 354 1225 c 0
 265 1225 260 1152 260 1030 c 0
 260 926 263 849 354 849 c 0
EndSplineSet
EndChar

StartChar: dotlessi
Encoding: 305 305 226
Width: 500
Flags: HW
LayerCount: 2
Fore
SplineSet
181 0 m 1
 181 1032 l 1
 309 1032 l 1
 309 0 l 1
 181 0 l 1
EndSplineSet
EndChar

StartChar: circumflex
Encoding: 710 710 227
Width: 842
Flags: HW
LayerCount: 2
Fore
SplineSet
83 1162 m 1
 370 1504 l 1
 471 1504 l 1
 759 1162 l 1
 650 1162 l 1
 419 1422 l 1
 190 1162 l 1
 83 1162 l 1
EndSplineSet
EndChar

StartChar: tilde
Encoding: 732 732 228
Width: 772
Flags: HW
LayerCount: 2
Fore
SplineSet
519 1932 m 0
 404 1932 340 2044 254 2044 c 0
 217 2044 190 2002 184 1934 c 1
 62 1934 l 1
 62 2020 144 2112 235 2112 c 0
 417 2112 413 1995 504 1995 c 0
 565 1995 579 2065 586 2114 c 1
 712 2114 l 1
 712 2001 603 1932 519 1932 c 0
EndSplineSet
EndChar

StartChar: macron
Encoding: 175 175 229
Width: 764
Flags: HW
LayerCount: 2
Fore
SplineSet
97 1195 m 1
 97 1262 l 1
 658 1262 l 1
 658 1195 l 1
 97 1195 l 1
EndSplineSet
EndChar

StartChar: breve
Encoding: 728 728 230
Width: 814
Flags: HW
LayerCount: 2
Fore
SplineSet
408 1243 m 0
 489 1243 569 1291 569 1382 c 1
 669 1382 l 1
 669 1226 537 1147 408 1147 c 0
 279 1147 147 1226 147 1382 c 1
 247 1382 l 1
 247 1291 327 1243 408 1243 c 0
EndSplineSet
EndChar

StartChar: dotaccent
Encoding: 729 729 231
Width: 429
Flags: HW
LayerCount: 2
Fore
SplineSet
321 2018 m 0
 246 2018 187 2078 187 2153 c 0
 187 2227 246 2288 321 2288 c 0
 395 2288 457 2227 457 2153 c 0
 457 2078 395 2018 321 2018 c 0
EndSplineSet
EndChar

StartChar: ring
Encoding: 730 730 232
Width: 416
Flags: HW
LayerCount: 2
Fore
SplineSet
201 1727 m 0
 90 1727 4 1807 4 1910 c 0
 4 2009 93 2089 201 2089 c 0
 313 2089 400 2012 400 1908 c 0
 400 1803 313 1727 201 1727 c 0
201 1782 m 0
 274 1782 322 1838 322 1906 c 0
 322 1974 274 2033 201 2033 c 0
 133 2033 82 1979 82 1906 c 0
 82 1836 128 1782 201 1782 c 0
EndSplineSet
EndChar

StartChar: cedilla
Encoding: 184 184 233
Width: 522
Flags: HW
LayerCount: 2
Fore
SplineSet
230 -490 m 0
 180 -490 89 -473 39 -449 c 1
 72 -390 l 1
 73 -390 l 1
 101 -421 171 -438 241 -438 c 0
 308 -438 402 -415 402 -280 c 0
 402 -233 375 -180 296 -180 c 0
 272 -180 245 -187 214 -196 c 1
 197 -191 185 -184 168 -181 c 1
 230 2 l 1
 287 2 l 1
 247 -120 l 1
 392 -126 471 -179 471 -278 c 0
 471 -393 427 -490 230 -490 c 0
EndSplineSet
EndChar

StartChar: hungarumlaut
Encoding: 733 733 234
Width: 612
Flags: HW
LayerCount: 2
Fore
SplineSet
16 1110 m 1
 201 1452 l 1
 344 1452 l 1
 107 1110 l 1
 16 1110 l 1
250 1110 m 1
 448 1452 l 1
 628 1452 l 1
 340 1110 l 1
 250 1110 l 1
EndSplineSet
EndChar

StartChar: ogonek
Encoding: 731 731 235
Width: 522
Flags: HW
LayerCount: 2
Fore
SplineSet
281 -409 m 1
 125 -409 69 -320 82 -186 c 0
 90 -108 131 -43 172 5 c 1
 244 5 l 1
 202 -67 179 -143 183 -207 c 0
 186 -260 206 -306 287 -306 c 0
 301 -306 376 -299 433 -284 c 1
 446 -372 l 1
 373 -395 320 -405 281 -409 c 1
EndSplineSet
EndChar

StartChar: caron
Encoding: 711 711 236
Width: 842
Flags: HW
LayerCount: 2
Fore
SplineSet
83 1504 m 1
 190 1504 l 1
 419 1244 l 1
 650 1504 l 1
 759 1504 l 1
 471 1162 l 1
 370 1162 l 1
 83 1504 l 1
EndSplineSet
EndChar

StartChar: Dcroat
Encoding: 272 272 312
Width: 1374
Flags: HW
LayerCount: 2
Fore
SplineSet
124 0 m 1
 124 1481 l 1
 545 1481 l 2
 550 1481 554 1481 559 1481 c 1
 583 1450 l 1
 600 1450 l 1
 625 1479 l 1
 1048 1452 1299 1205 1299 740 c 0
 1299 266 1085 0 532 0 c 2
 124 0 l 1
253 95 m 1
 550 95 l 2
 949 95 1170 305 1170 740 c 0
 1170 1153 966 1381 547 1381 c 2
 253 1381 l 1
 253 95 l 1
559 1481 m 1
 581 1481 603 1480 625 1479 c 1
 902 1793 l 1
 858 1793 l 1
 593 1517 l 1
 374 1793 l 1
 316 1793 l 1
 559 1481 l 1
EndSplineSet
EndChar

StartChar: Hbar
Encoding: 294 294 313
Width: 1319
Flags: HW
LayerCount: 2
Fore
SplineSet
124 0 m 1
 124 1481 l 1
 253 1481 l 1
 253 808 l 1
 1105 808 l 1
 1105 1481 l 1
 1234 1481 l 1
 1234 0 l 1
 1105 0 l 1
 1105 721 l 1
 253 721 l 1
 253 0 l 1
 124 0 l 1
308 1588 m 1
 595 1930 l 1
 696 1930 l 1
 984 1588 l 1
 875 1588 l 1
 644 1848 l 1
 415 1588 l 1
 308 1588 l 1
EndSplineSet
EndChar

StartChar: f_i
Encoding: 65537 -1 339
Width: 1097
Flags: HW
LayerCount: 2
Fore
SplineSet
859 1221 m 0
 788 1221 751 1272 751 1323 c 0
 751 1375 785 1426 859 1426 c 0
 929 1426 967 1374 967 1323 c 0
 967 1272 930 1221 859 1221 c 0
216 0 m 1
 216 938 l 1
 23 938 l 1
 23 1028 l 1
 216 1028 l 1
 216 1064 l 2
 216 1313 271 1424 536 1424 c 0
 611 1424 572 1420 625 1414 c 1
 625 1305 l 1
 625 1305 575 1315 551 1315 c 0
 387 1315 335 1277 335 1028 c 1
 912 1028 l 1
 912 0 l 1
 783 0 l 1
 783 938 l 1
 343 938 l 1
 343 0 l 1
 216 0 l 1
EndSplineSet
EndChar

StartChar: f_l
Encoding: 65538 -1 340
Width: 1179
Flags: HW
LayerCount: 2
Fore
SplineSet
1064 -11 m 2
 820 -11 779 46 779 256 c 2
 779 1317 l 1
 779 1317 610 1329 586 1329 c 0
 375 1329 335 1277 335 1028 c 1
 636 1028 l 1
 636 938 l 1
 343 938 l 1
 343 0 l 1
 216 0 l 1
 216 938 l 1
 23 938 l 1
 23 1028 l 1
 216 1028 l 1
 216 1064 l 2
 216 1313 310 1424 575 1424 c 0
 692 1424 905 1395 905 1395 c 1
 905 297 l 2
 905 131 912 107 1146 107 c 1
 1146 -11 l 1
 1064 -11 l 2
EndSplineSet
EndChar

StartChar: dcroat
Encoding: 273 273 396
Width: 1138
Flags: HW
LayerCount: 2
Fore
SplineSet
560 73 m 0
 776 73 908 211 897 266 c 1
 897 761 l 1
 924 819 775 938 577 938 c 0
 409 938 226 835 226 514 c 0
 226 256 320 73 560 73 c 0
610 -36 m 1
 368 -36 100 103 100 496 c 0
 100 857 326 1046 536 1046 c 0
 641 1046 817 1027 897 853 c 1
 897 1428 l 1
 1023 1428 l 1
 1023 0 l 1
 897 0 l 1
 897 130 l 1
 853 17 734 -34 610 -36 c 1
EndSplineSet
EndChar

StartChar: hbar
Encoding: 295 295 397
Width: 1133
Flags: HW
LayerCount: 2
Fore
SplineSet
126 0 m 1
 126 1389 l 1
 254 1389 l 1
 254 854 l 1
 358 986 524 1057 666 1057 c 0
 885 1057 1030 933 1030 690 c 2
 1030 0 l 1
 902 0 l 1
 902 752 l 2
 902 913 748 963 655 963 c 0
 419 963 254 791 254 749 c 2
 254 0 l 1
 126 0 l 1
231 1456 m 1
 518 1798 l 1
 619 1798 l 1
 907 1456 l 1
 798 1456 l 1
 567 1716 l 1
 338 1456 l 1
 231 1456 l 1
EndSplineSet
EndChar

StartChar: kgreenlandic
Encoding: 312 312 399
Width: 1036
Flags: HW
LayerCount: 2
Fore
SplineSet
115 0 m 1
 115.106445312 1032.01367188 l 1
 243.106445312 1032.01367188 l 1
 243 503 l 1
 244 503 l 1
 837 1032 l 1
 990 1032 l 1
 990 988 l 1
 511 580 l 5
 1037 42 l 1
 1037 0 l 1
 897 0 l 1
 416 521 l 1
 243 378 l 1
 243 0 l 1
 115 0 l 1
EndSplineSet
EndChar

StartChar: uni0237
Encoding: 567 567 405
Width: 494
Flags: HW
LayerCount: 2
Fore
SplineSet
102 -368 m 0
 0 -368 -10 -365 -40 -362 c 1
 -40 -247 l 1
 -4 -250 2 -249 33 -249 c 0
 135 -249 199 -237 199 -34 c 2
 199 1028 l 1
 326 1028 l 1
 326 26 l 2
 326 -190 332 -368 102 -368 c 0
EndSplineSet
EndChar

StartChar: uni02C9
Encoding: 713 713 410
Width: 1230
Flags: HW
LayerCount: 2
Fore
SplineSet
353 1153 m 1
 353 1244 l 1
 880 1244 l 5
 880 1153 l 5
 353 1153 l 1
EndSplineSet
EndChar

StartChar: uni0307
Encoding: 775 775 411
Width: 548
Flags: HW
LayerCount: 2
Fore
SplineSet
136 155 m 0
 64 155 5 210 5 282 c 0
 5 350 64 407 136 407 c 0
 205 407 262 350 262 282 c 0
 262 210 205 155 136 155 c 0
EndSplineSet
EndChar

StartChar: uni030F
Encoding: 783 783 412
Width: 612
Flags: HW
LayerCount: 2
Fore
SplineSet
612 1110 m 1
 521 1110 l 1
 284 1452 l 1
 436 1452 l 1
 612 1110 l 1
378 1110 m 1
 288 1110 l 1
 0 1452 l 1
 180 1452 l 1
 378 1110 l 1
EndSplineSet
EndChar

StartChar: uni0311
Encoding: 785 785 413
Width: 814
Flags: HW
LayerCount: 2
Fore
SplineSet
407 1286 m 0
 326 1286 246 1238 246 1147 c 1
 146 1147 l 1
 146 1303 278 1382 407 1382 c 0
 536 1382 668 1303 668 1147 c 1
 568 1147 l 1
 568 1238 488 1286 407 1286 c 0
EndSplineSet
EndChar

StartChar: uni0326
Encoding: 806 806 414
Width: 470
Flags: HW
LayerCount: 2
Fore
SplineSet
102 -186 m 1
 131 304 l 1
 293 304 l 1
 180 -186 l 1
 102 -186 l 1
EndSplineSet
EndChar

StartChar: one.superior
Encoding: 65539 -1 415
Width: 592
Flags: HW
LayerCount: 2
Fore
SplineSet
99 552 m 1
 99 653 l 1
 240 653 l 1
 240 1240 l 1
 85 1194 l 1
 85 1277 l 1
 166 1296 203 1332 224 1373 c 1
 374 1373 l 1
 374 653 l 1
 514 653 l 1
 514 552 l 1
 99 552 l 1
EndSplineSet
EndChar

StartChar: two.superior
Encoding: 65540 -1 416
Width: 675
Flags: HW
LayerCount: 2
Fore
SplineSet
92 553 m 1
 92 651 l 1
 256 811 457 1028 457 1154 c 0
 457 1234 425 1280 311 1280 c 0
 255 1280 159 1242 128 1214 c 1
 104 1308 l 1
 140 1344 249 1382 331 1382 c 0
 490 1382 574 1294 574 1156 c 0
 574 995 438 847 242 653 c 1
 577 653 l 1
 577 553 l 1
 92 553 l 1
EndSplineSet
EndChar

StartChar: three.superior
Encoding: 65541 -1 417
Width: 709
Flags: HW
LayerCount: 2
Fore
SplineSet
324 544 m 0
 202 544 113 584 80 607 c 1
 80 704 l 1
 113 704 l 1
 113 704 162 645 310 645 c 0
 435 645 507 695 507 784 c 0
 507 860 446 949 291 949 c 2
 225 949 l 1
 225 1032 l 1
 291 1032 l 2
 433 1032 475 1091 475 1167 c 0
 475 1234 420 1279 305 1279 c 0
 182 1279 113 1226 113 1226 c 1
 80 1226 l 1
 80 1321 l 1
 130 1357 224 1381 319 1381 c 0
 521 1381 608 1279 608 1167 c 0
 608 1063 542 1018 475 988 c 1
 550 965 636 894 636 784 c 0
 636 643 521 544 324 544 c 0
EndSplineSet
EndChar

StartChar: uni00B2
Encoding: 178 178 418
Width: 1523
Flags: HW
LayerCount: 2
Fore
SplineSet
19 552 m 1
 19 653 l 1
 160 653 l 1
 160 1240 l 1
 5 1194 l 1
 5 1277 l 1
 86 1296 123 1332 144 1373 c 1
 294 1373 l 1
 294 653 l 1
 434 653 l 1
 434 552 l 1
 19 552 l 1
921 0 m 1
 921 98 l 1
 1085 258 1286 475 1286 601 c 0
 1286 681 1254 727 1140 727 c 0
 1084 727 988 689 957 661 c 1
 933 755 l 1
 969 791 1078 829 1160 829 c 0
 1319 829 1403 741 1403 603 c 0
 1403 442 1267 294 1071 100 c 1
 1406 100 l 1
 1406 0 l 1
 921 0 l 1
256 0 m 1
 1088 1430 l 1
 1215 1430 l 1
 383 0 l 1
 256 0 l 1
EndSplineSet
EndChar

StartChar: uni2206
Encoding: 8710 8710 419
Width: 1100
Flags: HW
LayerCount: 2
Fore
SplineSet
831 671 m 1
 553 1170 l 1
 273 673 l 1
 831 671 l 1
81 540 m 1
 83 672 l 1
 488 1376 l 1
 616 1376 l 1
 1019 674 l 1
 1019 540 l 1
 81 540 l 1
EndSplineSet
EndChar

StartChar: uni2215
Encoding: 8725 8725 420
Width: -131
Flags: HW
LayerCount: 2
Fore
SplineSet
-385 0 m 1
 69 1478 l 1
 308 1478 l 1
 -146 0 l 1
 -385 0 l 1
EndSplineSet
EndChar

StartChar: uni2219
Encoding: 8729 8729 421
Width: 357
Flags: HW
LayerCount: 2
Fore
SplineSet
179 432 m 0
 107 432 47 486 47 558 c 0
 47 630 107 686 179 686 c 0
 251 686 303 630 303 558 c 0
 303 486 251 432 179 432 c 0
EndSplineSet
EndChar

StartChar: Euro
Encoding: 8364 8364 422
Width: 1312
Flags: HW
LayerCount: 2
Fore
SplineSet
879 -23 m 0
 491 -23 265 197 185 619 c 1
 20 619 l 1
 43 706 l 1
 188 706 l 1
 186 737 187 762 187 778 c 0
 187 801 188 813 188 819 c 1
 24 819 l 1
 35 905 l 1
 191 905 l 1
 286 1333 549 1503 871 1503 c 0
 1011 1503 1162 1473 1280 1353 c 1
 1280 1143 l 1
 1231 1143 l 1
 1168 1319 1045 1421 825 1421 c 0
 657 1421 365 1335 304 905 c 1
 1097 905 l 1
 1071 819 l 1
 293 819 l 1
 291 803 288 789 288 720 c 0
 288 712 289 708 289 706 c 1
 1056 706 l 1
 1032 619 l 1
 296 619 l 1
 339 321 525 82 842 82 c 0
 942 82 1179 88 1204 336 c 1
 1280 336 l 1
 1280 128 l 1
 1153 -4 976 -23 879 -23 c 0
EndSplineSet
EndChar

StartChar: uni00AD
Encoding: 173 173 424
Width: 790
Flags: HW
LayerCount: 2
Fore
SplineSet
106 586 m 1
 106 628 l 1
 683 628 l 1
 683 586 l 1
 106 586 l 1
EndSplineSet
EndChar

StartChar: dblgravecmb
Encoding: 65542 -1 425
Width: 610
Flags: HW
LayerCount: 2
Fore
SplineSet
553 1110 m 1
 316 1452 l 1
 442 1452 l 1
 641 1110 l 1
 553 1110 l 1
352 1110 m 1
 49 1452 l 1
 244 1452 l 1
 442 1110 l 1
 352 1110 l 1
EndSplineSet
EndChar
